<svg width="25" height="25" viewBox="0 0 25 25" fill="none" xmlns="http://www.w3.org/2000/svg">
<path fill-rule="evenodd" clip-rule="evenodd" d="M0.442108 0.442108V2.88421H2.88421L7.28 12.152L5.63158 15.1314C4.74021 16.7676 5.91242 18.7579 7.76842 18.7579H22.4211V16.3158H7.76842L9.11158 13.8737H18.2084C19.1242 13.8737 19.9301 13.3731 20.3453 12.616L24.7166 4.69137C25.1684 3.88548 24.5823 2.88421 23.6543 2.88421H5.58274L4.43495 0.442108H0.442108ZM7.76843 19.979C6.42527 19.979 5.33853 21.0779 5.33853 22.4211C5.33853 23.7642 6.42527 24.8632 7.76843 24.8632C9.11158 24.8632 10.2105 23.7642 10.2105 22.4211C10.2105 21.0779 9.11158 19.979 7.76843 19.979ZM17.5491 22.4211C17.5491 21.0779 18.6358 19.979 19.979 19.979C21.3221 19.979 22.4211 21.0779 22.4211 22.4211C22.4211 23.7642 21.3221 24.8632 19.979 24.8632C18.6358 24.8632 17.5491 23.7642 17.5491 22.4211Z" fill="#694633"/>
</svg>
