<svg width="520" height="124" viewBox="0 0 520 124" fill="none" xmlns="http://www.w3.org/2000/svg">
<path d="M26.17 64.5C18.8 62.32 13.16 55.86 12.68 47.88C12.66 47.54 12.65 47.19 12.65 46.84C12.64 45.49 12.77 44.16 13.02 42.87C5.37 39.25 0.0599998 31.62 -2.45083e-07 22.81C-0.0400002 16.7 2.38 10.97 6.83 6.68001C11.12 2.54001 16.8 0.240012 22.83 0.200012L139.44 0.450012C146.29 0.430012 151.85 5.98001 151.85 12.82V110.94C151.85 117.77 146.31 123.31 139.48 123.31L38.48 122.75C31.65 122.75 26.11 117.21 26.11 110.38L26.17 64.5Z" fill="url(#paint0_linear)"/>
<path d="M122.3 13.25L28.62 13.5L23.53 13.58C17.15 13.62 12.02 18.58 12.06 24.65C12.1 30.72 17.31 35.61 23.68 35.57L34.72 35.4H60.35C61.88 35.4 63.13 36.64 63.13 38.18C63.13 39.71 61.89 40.96 60.35 40.96H34.72C34.72 40.96 25.15 40.69 25.15 49.56C25.18 54.24 29.19 58 34.1 57.97L50.89 58C52.35 58 53.53 59.18 53.53 60.64V60.91C53.53 62.37 52.35 63.55 50.89 63.55H40.2C39.59 63.55 39.1 64.04 39.1 64.65V99.34C39.1 105.41 44.02 110.32 50.08 110.32H127.87C133.94 110.32 138.85 105.4 138.85 99.34V24.23C138.86 18.16 133.93 13.23 122.3 13.25Z" fill="url(#paint1_linear)"/>
<path d="M127.88 111.33H50.08C43.47 111.33 38.1 105.95 38.1 99.35V64.65C38.1 63.49 39.04 62.55 40.2 62.55H50.89C51.8 62.55 52.53 61.81 52.53 60.91V60.64C52.53 59.73 51.79 59 50.89 59L34.1 58.96C34.08 58.96 34.06 58.96 34.03 58.96C28.61 58.96 24.18 54.75 24.15 49.56C24.15 46.77 25.02 44.52 26.72 42.86C29.82 39.85 34.55 39.94 34.74 39.95H60.34C61.32 39.95 62.12 39.15 62.12 38.17C62.12 37.19 61.32 36.39 60.34 36.39H34.72L23.7 36.57C16.76 36.6 11.11 31.27 11.06 24.65C11.04 21.44 12.33 18.41 14.69 16.13C17.04 13.86 20.18 12.6 23.52 12.58L28.6 12.5L122.29 12.25C122.31 12.25 122.33 12.25 122.34 12.25C128.86 12.25 133.86 13.81 136.82 16.77C138.8 18.75 139.85 21.33 139.85 24.24V99.35C139.86 105.95 134.49 111.33 127.88 111.33ZM40.2 64.55C40.15 64.55 40.1 64.59 40.1 64.65V99.34C40.1 104.84 44.58 109.32 50.08 109.32H127.87C133.37 109.32 137.85 104.84 137.85 99.34V24.23C137.85 21.83 137.03 19.8 135.41 18.18C132.83 15.61 128.31 14.25 122.34 14.25C122.32 14.25 122.31 14.25 122.29 14.25L28.62 14.5L23.54 14.58C20.7 14.6 18.06 15.66 16.08 17.57C14.11 19.47 13.04 21.98 13.06 24.64C13.1 30.15 17.86 34.56 23.67 34.57L34.7 34.4H60.34C62.42 34.4 64.12 36.09 64.12 38.18C64.12 40.27 62.43 41.96 60.34 41.96H34.72C34.66 41.96 30.59 41.89 28.11 44.31C26.81 45.58 26.15 47.34 26.15 49.56C26.18 53.65 29.71 56.97 34.04 56.97C34.06 56.97 34.08 56.97 34.09 56.97L50.89 57C52.9 57 54.53 58.63 54.53 60.64V60.91C54.53 62.92 52.9 64.55 50.89 64.55H40.2Z" fill="#AF602B"/>
<path d="M110.41 89.79H78.87C73.26 89.79 68.68 85.2 68.68 79.6V48.05C68.68 42.44 73.27 37.86 78.87 37.86H110.41C116.02 37.86 120.6 42.45 120.6 48.05V79.59C120.6 85.2 116.01 89.79 110.41 89.79Z" fill="url(#paint2_linear)"/>
<path d="M110.41 90.79H78.87C72.7 90.79 67.68 85.77 67.68 79.59V48.05C67.68 41.88 72.7 36.86 78.87 36.86H110.41C116.58 36.86 121.6 41.88 121.6 48.05V79.59C121.6 85.77 116.58 90.79 110.41 90.79ZM78.87 38.86C73.8 38.86 69.68 42.98 69.68 48.05V79.59C69.68 84.66 73.8 88.79 78.87 88.79H110.41C115.48 88.79 119.6 84.66 119.6 79.59V48.05C119.6 42.98 115.48 38.86 110.41 38.86H78.87Z" fill="#AF602B"/>
<path d="M170.85 120.26C170.85 120.11 170.89 119.92 171 119.69L195.3 68.85C195.68 68.09 196.63 68.09 197.57 68.09C198.52 68.09 199.43 68.09 199.8 68.85L224.14 119.73C224.25 119.92 224.29 120.11 224.29 120.26C224.29 121.62 221 121.7 217.74 121.7C214.07 121.7 210.43 121.66 209.94 120.45L208.07 115.85L212.38 113.82H182.79L186.94 116.17L185.18 120.45C184.65 121.66 181.02 121.7 177.34 121.7C174.11 121.7 170.85 121.7 170.85 120.26ZM188.36 103.3H206.95L201.73 101.31L197.66 91.48L193.54 101.42L188.36 103.3Z" fill="#AF602B"/>
<path d="M376.63 120.26C376.63 120.11 376.67 119.92 376.78 119.69L401.08 68.85C401.46 68.09 402.41 68.09 403.35 68.09C404.3 68.09 405.21 68.09 405.58 68.85L429.92 119.73C430.03 119.92 430.07 120.11 430.07 120.26C430.07 121.62 426.78 121.7 423.52 121.7C419.85 121.7 416.21 121.66 415.72 120.45L413.85 115.85L418.16 113.82H388.57L392.72 116.17L390.96 120.45C390.43 121.66 386.8 121.7 383.12 121.7C379.89 121.7 376.63 121.7 376.63 120.26ZM394.14 103.3H412.73L407.51 101.31L403.44 91.48L399.32 101.42L394.14 103.3Z" fill="#AF602B"/>
<path d="M270.68 121.46L237.85 89.54L242.06 97.4V119.87C242.06 121.46 238.84 121.46 235.59 121.46C232.34 121.46 229.12 121.46 229.12 119.91V68.99C229.12 67.85 230.03 67.85 230.97 67.85C231.88 67.85 232.79 67.85 233.36 68.34L266.61 101.3L261.91 93.25V69.89C261.91 68.34 265.13 68.34 268.38 68.34C271.67 68.34 274.89 68.34 274.89 69.89V120.77C274.89 121.94 274.02 121.94 273.07 121.94C272.15 121.95 271.21 121.95 270.68 121.46Z" fill="#AF602B"/>
<path d="M283.65 120.36V70.39C283.65 68.88 286.87 68.84 290.16 68.84C293.42 68.84 296.63 68.88 296.63 70.39V120.36C296.63 121.91 293.41 121.95 290.16 121.95C286.87 121.95 283.65 121.91 283.65 120.36Z" fill="#AF602B"/>
<path d="M304.07 120.43C304.07 120.32 304.07 120.24 304.11 120.13L316.19 69.29C316.42 68.34 317.36 68.34 318.31 68.34C319.29 68.34 320.2 68.34 320.66 69.02L338.38 100.33L356.1 69.02C356.52 68.34 357.46 68.34 358.41 68.34C359.39 68.34 360.3 68.38 360.53 69.29L372.61 120.13C372.65 120.24 372.65 120.32 372.65 120.43C372.65 121.94 369.36 121.94 366.02 121.94C362.5 121.94 359.02 121.94 358.68 120.58L354.21 99.83L355.39 92.02L340.34 121C339.96 121.72 339.17 121.72 338.37 121.72C337.54 121.72 336.74 121.72 336.33 121L320.68 90.72L322.57 99.74L318.08 120.58C317.7 121.94 314.22 121.94 310.7 121.94C307.37 121.95 304.07 121.95 304.07 120.43Z" fill="#AF602B"/>
<path d="M435.84 120.15V83.97L440.64 81.42L421.95 81.53C420.43 81.53 420.43 78.39 420.43 75.21C420.43 72.07 420.43 68.96 421.98 68.96H462.71C464.26 68.96 464.26 72.06 464.26 75.21C464.26 78.39 464.26 81.53 462.71 81.53L443.96 81.42L448.82 83.79V120.11C448.82 121.7 445.56 121.7 442.31 121.7C439.09 121.7 435.84 121.7 435.84 120.15Z" fill="#AF602B"/>
<path d="M465.46 95.13C465.46 80.25 477.65 68.18 492.68 68.18C507.71 68.18 519.9 80.26 519.9 95.13C519.9 110.05 507.71 122.12 492.68 122.12C477.66 122.12 465.46 110.04 465.46 95.13ZM505.82 95.13C505.82 87.41 500.18 81.43 492.68 81.43C485.19 81.43 479.51 87.41 479.51 95.13C479.51 102.82 485.19 108.87 492.68 108.87C500.18 108.87 505.82 102.81 505.82 95.13Z" fill="#AF602B"/>
<path d="M170.96 27.37C170.96 11.96 182.51 0.419983 198.37 0.419983C205.45 0.419983 210.83 1.81998 215.71 5.33998C216.05 5.56998 216.2 6.01998 216.2 6.62998C216.2 8.13998 215.37 10.45 214.69 12.08C213.55 14.73 212 17.23 210.71 17.23C210.52 17.23 210.37 17.15 210.18 17.04C206.85 14.69 202.53 13.48 198.52 13.48C191.36 13.48 185 19.12 185 27.37C185 35.58 191.36 41.23 198.52 41.23C202.53 41.23 206.81 39.98 210.18 37.71C210.37 37.6 210.56 37.56 210.75 37.56C211.89 37.56 213.4 39.49 214.69 42.41C215.41 44.08 216.2 46.46 216.2 48.01C216.2 48.65 216.09 49.18 215.71 49.41C210.83 52.85 205.45 54.37 198.37 54.37C182.5 54.36 170.96 42.78 170.96 27.37Z" fill="url(#paint3_linear)"/>
<path d="M223.16 51.98V1.96998C223.16 0.459983 226.38 0.419983 229.67 0.419983C232.93 0.419983 236.14 0.459983 236.14 1.96998V17L231.29 19.72H263.59L258.85 16.9V1.96998C258.85 0.459983 262.11 0.419983 265.32 0.419983C268.58 0.419983 271.83 0.459983 271.83 1.96998V51.94C271.83 53.49 268.57 53.53 265.32 53.53C262.1 53.53 258.85 53.49 258.85 51.98V35.07L263.09 32.29H232.08L236.14 34.87V51.94C236.14 53.49 232.92 53.53 229.67 53.53C226.38 53.53 223.16 53.49 223.16 51.98Z" fill="url(#paint4_linear)"/>
<path d="M338.32 27.37C338.32 11.96 349.87 0.419983 365.73 0.419983C372.81 0.419983 378.19 1.81998 383.07 5.33998C383.41 5.56998 383.56 6.01998 383.56 6.62998C383.56 8.13998 382.73 10.45 382.04 12.08C380.91 14.73 379.35 17.23 378.07 17.23C377.88 17.23 377.73 17.15 377.54 17.04C374.21 14.69 369.89 13.48 365.88 13.48C358.72 13.48 352.36 19.12 352.36 27.37C352.36 35.58 358.72 41.23 365.88 41.23C369.89 41.23 374.17 39.98 377.54 37.71C377.73 37.6 377.92 37.56 378.11 37.56C379.25 37.56 380.76 39.49 382.05 42.41C382.77 44.08 383.57 46.46 383.57 48.01C383.57 48.65 383.45 49.18 383.08 49.41C378.2 52.85 372.82 54.37 365.74 54.37C349.86 54.36 338.32 42.78 338.32 27.37Z" fill="url(#paint5_linear)"/>
<path d="M278.85 26.95C278.85 12.08 291.04 0 306.07 0C321.1 0 333.29 12.08 333.29 26.95C333.29 41.87 321.1 53.94 306.07 53.94C291.04 53.95 278.85 41.87 278.85 26.95ZM319.21 26.95C319.21 19.23 313.57 13.25 306.07 13.25C298.58 13.25 292.9 19.23 292.9 26.95C292.9 34.64 298.58 40.69 306.07 40.69C313.57 40.7 319.21 34.64 319.21 26.95Z" fill="url(#paint6_linear)"/>
<path d="M388.28 26.95C388.28 12.08 400.47 0 415.5 0C430.53 0 442.72 12.08 442.72 26.95C442.72 41.87 430.53 53.94 415.5 53.94C400.47 53.95 388.28 41.87 388.28 26.95ZM428.63 26.95C428.63 19.23 422.99 13.25 415.49 13.25C408 13.25 402.32 19.23 402.32 26.95C402.32 34.64 408 40.69 415.49 40.69C422.99 40.7 428.63 34.64 428.63 26.95Z" fill="url(#paint7_linear)"/>
<defs>
<linearGradient id="paint0_linear" x1="63.0016" y1="93.7704" x2="98.4935" y2="16.7454" gradientUnits="userSpaceOnUse">
<stop offset="2.66389e-07" stop-color="#512C1F"/>
<stop offset="1" stop-color="#512C1F"/>
</linearGradient>
<linearGradient id="paint1_linear" x1="137.782" y1="102.504" x2="33.6443" y2="16.2754" gradientUnits="userSpaceOnUse">
<stop offset="0.00447144" stop-color="#703320"/>
<stop offset="1" stop-color="#AF602B"/>
</linearGradient>
<linearGradient id="paint2_linear" x1="54.2315" y1="30.4601" x2="115.925" y2="81.3996" gradientUnits="userSpaceOnUse">
<stop offset="0.00447144" stop-color="#703320"/>
<stop offset="1" stop-color="#AF602B"/>
</linearGradient>
<linearGradient id="paint3_linear" x1="170.956" y1="27.3896" x2="216.195" y2="27.3896" gradientUnits="userSpaceOnUse">
<stop offset="2.66389e-07" stop-color="#512C1F"/>
<stop offset="1" stop-color="#512C1F"/>
</linearGradient>
<linearGradient id="paint4_linear" x1="223.159" y1="26.9731" x2="271.844" y2="26.9731" gradientUnits="userSpaceOnUse">
<stop offset="2.66389e-07" stop-color="#512C1F"/>
<stop offset="1" stop-color="#512C1F"/>
</linearGradient>
<linearGradient id="paint5_linear" x1="338.317" y1="27.3896" x2="383.557" y2="27.3896" gradientUnits="userSpaceOnUse">
<stop offset="2.66389e-07" stop-color="#512C1F"/>
<stop offset="1" stop-color="#512C1F"/>
</linearGradient>
<linearGradient id="paint6_linear" x1="278.853" y1="26.9731" x2="333.292" y2="26.9731" gradientUnits="userSpaceOnUse">
<stop offset="2.66389e-07" stop-color="#512C1F"/>
<stop offset="1" stop-color="#512C1F"/>
</linearGradient>
<linearGradient id="paint7_linear" x1="388.279" y1="26.9731" x2="442.718" y2="26.9731" gradientUnits="userSpaceOnUse">
<stop offset="2.66389e-07" stop-color="#512C1F"/>
<stop offset="1" stop-color="#512C1F"/>
</linearGradient>
</defs>
</svg>
