<svg width="89" height="91" viewBox="0 0 89 91" fill="none" xmlns="http://www.w3.org/2000/svg">
<g clip-path="url(#clip0)">
<path d="M88.71 46.29C88.71 43.21 88.46 40.12 87.93 37.1H45.25V54.53H69.69C68.68 60.15 65.42 65.12 60.64 68.28V79.59H75.22C83.79 71.7 88.71 60.06 88.71 46.29Z" fill="#4285F4"/>
<path d="M45.25 90.5C57.45 90.5 67.75 86.49 75.25 79.58L60.66 68.27C56.6 71.03 51.37 72.59 45.26 72.59C33.45 72.59 23.45 64.63 19.85 53.92H4.81V65.58C12.5 80.86 28.14 90.5 45.25 90.5Z" fill="#34A853"/>
<path d="M19.84 53.9199C17.94 48.2999 17.94 42.2099 19.84 36.5899V24.9399H4.81C-1.61 37.7299 -1.61 52.7899 4.81 65.5799L19.84 53.9199Z" fill="#FBBC04"/>
<path d="M45.25 17.91C51.7 17.81 57.94 20.24 62.61 24.69L75.53 11.77C67.35 4.08999 56.49 -0.130013 45.25 -1.29188e-05C28.14 -1.29188e-05 12.5 9.64999 4.81 24.94L19.84 36.6C23.42 25.87 33.45 17.91 45.25 17.91Z" fill="#EA4335"/>
</g>
<defs>
<clipPath id="clip0">
<rect width="88.71" height="90.5" fill="white"/>
</clipPath>
</defs>
</svg>
