<svg width="497" height="570" viewBox="0 0 497 570" fill="none" xmlns="http://www.w3.org/2000/svg">
<path fill-rule="evenodd" clip-rule="evenodd" d="M154.833 135.379C150.729 135.379 147.388 138.711 147.388 142.831V546.151C147.388 550.264 150.723 553.603 154.833 553.603H336.714C340.811 553.603 344.152 550.264 344.144 546.148L344.144 546.135V142.831C344.144 138.718 340.809 135.379 336.698 135.379H154.833ZM135.388 142.831C135.388 132.08 144.105 123.379 154.833 123.379H336.698C347.451 123.379 356.144 132.105 356.144 142.831L356.144 546.122C356.144 546.125 356.144 546.128 356.144 546.13C356.162 556.881 347.446 565.603 336.714 565.603H154.833C144.081 565.603 135.388 556.877 135.388 546.151V142.831Z" fill="white"/>
<path d="M336.698 560.055H154.849C147.417 560.055 141.388 554.022 141.388 546.587V142.395C141.388 134.959 147.417 128.927 154.849 128.927H336.682C344.114 128.927 350.144 134.959 350.144 142.395V546.587C350.159 554.022 344.13 560.055 336.698 560.055Z" fill="white"/>
<path fill-rule="evenodd" clip-rule="evenodd" d="M154.849 130.927C148.523 130.927 143.388 136.063 143.388 142.395V546.587C143.388 552.919 148.523 558.055 154.849 558.055H336.698C343.025 558.055 348.157 552.919 348.144 546.591V142.395C348.144 136.063 343.009 130.927 336.682 130.927H154.849ZM139.388 142.395C139.388 133.856 146.312 126.927 154.849 126.927H336.682C345.22 126.927 352.144 133.856 352.144 142.395L352.144 546.583L352.144 546.587C352.144 546.586 352.144 546.584 352.144 546.583M352.144 546.587C352.159 555.128 345.233 562.055 336.698 562.055H154.849C146.312 562.055 139.388 555.126 139.388 546.587V142.395" fill="#AF602B"/>
<path fill-rule="evenodd" clip-rule="evenodd" d="M192.581 535.956C192.581 535.404 193.028 534.956 193.581 534.956H289.943C290.495 534.956 290.943 535.404 290.943 535.956C290.943 536.508 290.495 536.956 289.943 536.956H193.581C193.028 536.956 192.581 536.508 192.581 535.956Z" fill="#AF602B"/>
<path d="M277.292 337.804L232.686 312.037C230.708 310.899 228.231 312.318 228.231 314.609V366.142C228.231 368.434 230.708 369.868 232.686 368.714L277.292 342.948C279.27 341.81 279.27 338.942 277.292 337.804Z" fill="#AF602B"/>
<path d="M175.352 535.27L161.361 527.18C160.738 526.822 159.959 527.274 159.959 527.991V544.155C159.959 544.872 160.738 545.324 161.361 544.966L175.352 536.876C175.975 536.533 175.975 535.629 175.352 535.27Z" fill="#AF602B"/>
<path fill-rule="evenodd" clip-rule="evenodd" d="M305.006 527.928C305.006 527.376 305.453 526.928 306.006 526.928H310.602C311.154 526.928 311.602 527.376 311.602 527.928C311.602 528.481 311.154 528.928 310.602 528.928H307.006V532.511C307.006 533.064 306.558 533.511 306.006 533.511C305.453 533.511 305.006 533.064 305.006 532.511V527.928Z" fill="#AF602B"/>
<path fill-rule="evenodd" clip-rule="evenodd" d="M306.006 538.401C306.558 538.401 307.006 538.849 307.006 539.401V543H310.602C311.154 543 311.602 543.447 311.602 544C311.602 544.552 311.154 545 310.602 545H306.006C305.453 545 305.006 544.552 305.006 544V539.401C305.006 538.849 305.453 538.401 306.006 538.401Z" fill="#AF602B"/>
<path fill-rule="evenodd" clip-rule="evenodd" d="M324.512 527.928C324.512 527.376 324.959 526.928 325.512 526.928H330.092C330.644 526.928 331.092 527.376 331.092 527.928V532.511C331.092 533.064 330.644 533.511 330.092 533.511C329.54 533.511 329.092 533.064 329.092 532.511V528.928H325.512C324.959 528.928 324.512 528.481 324.512 527.928Z" fill="#AF602B"/>
<path fill-rule="evenodd" clip-rule="evenodd" d="M330.092 538.401C330.644 538.401 331.092 538.849 331.092 539.401V544C331.092 544.552 330.644 545 330.092 545H325.512C324.959 545 324.512 544.552 324.512 544C324.512 543.447 324.959 543 325.512 543H329.092V539.401C329.092 538.849 329.54 538.401 330.092 538.401Z" fill="#AF602B"/>
<path d="M67.8351 444.253H16.2966C9.02079 444.253 3.116 438.345 3.116 431.066V379.486C3.116 372.206 9.02079 366.298 16.2966 366.298H67.8506C75.1265 366.298 81.0313 372.206 81.0313 379.486V431.066C81.0157 438.345 75.1109 444.253 67.8351 444.253Z" fill="#FC8139"/>
<path fill-rule="evenodd" clip-rule="evenodd" d="M16.2966 368.298C10.1263 368.298 5.116 373.31 5.116 379.486V431.066C5.116 437.242 10.1263 442.253 16.2966 442.253H67.8351C74.0034 442.253 79.0162 437.243 79.0313 431.065C79.0313 431.064 79.0313 431.063 79.0313 431.061L79.0313 379.486C79.0313 373.31 74.0209 368.298 67.8506 368.298H16.2966ZM1.116 379.486C1.116 371.102 7.91527 364.298 16.2966 364.298H67.8506C76.232 364.298 83.0313 371.102 83.0313 379.486V431.066L83.0312 431.07C83.0133 439.449 76.2172 446.253 67.8351 446.253H16.2966C7.91527 446.253 1.116 439.449 1.116 431.066V379.486Z" fill="white"/>
<path fill-rule="evenodd" clip-rule="evenodd" d="M56.7266 387.077C56.2903 386.718 55.7294 386.563 55.1686 386.64L32.1414 390.475C31.2222 390.631 30.5367 391.426 30.5367 392.361V413.483H24.7877C23.2609 413.483 21.7963 414.091 20.7213 415.166C19.6463 416.242 19.0387 417.707 19.0387 419.235C19.0387 420.762 19.6463 422.227 20.7213 423.303C21.7963 424.379 23.2609 424.987 24.7877 424.987H28.6204C30.1472 424.987 31.6117 424.379 32.6867 423.303C33.7617 422.227 34.3694 420.762 34.3694 419.235V415.4V393.982L53.5638 390.787V409.633H47.8148C46.288 409.633 44.8235 410.24 43.7485 411.316C42.6735 412.392 42.0658 413.857 42.0658 415.384C42.0658 416.912 42.6735 418.377 43.7485 419.453C44.8235 420.528 46.288 421.136 47.8148 421.136H51.6475C53.1743 421.136 54.6388 420.528 55.7139 419.453C56.7889 418.377 57.3965 416.912 57.3965 415.384V411.55V388.511C57.4121 387.981 57.1628 387.435 56.7266 387.077Z" fill="#F9F9F9"/>
<path d="M460.06 291.492H408.506C401.23 291.492 395.325 285.584 395.325 278.305V226.725C395.325 219.445 401.23 213.538 408.506 213.538H460.06C467.336 213.538 473.241 219.445 473.241 226.725V278.305C473.241 285.584 467.336 291.492 460.06 291.492Z" fill="#FC8139"/>
<path fill-rule="evenodd" clip-rule="evenodd" d="M408.506 215.538C402.336 215.538 397.325 220.549 397.325 226.725V278.305C397.325 284.481 402.336 289.492 408.506 289.492H460.06C466.23 289.492 471.241 284.481 471.241 278.305V226.725C471.241 220.549 466.23 215.538 460.06 215.538H408.506ZM393.325 226.725C393.325 218.342 400.125 211.538 408.506 211.538H460.06C468.441 211.538 475.241 218.342 475.241 226.725V278.305C475.241 286.688 468.441 293.492 460.06 293.492H408.506C400.125 293.492 393.325 286.688 393.325 278.305V226.725Z" fill="white"/>
<path d="M435.179 228.003C422.31 228.003 411.965 239.226 411.871 251.322C411.762 264.136 419.646 277.323 432.515 277.323C442.003 277.323 438.342 271.306 443.28 263.886C445.945 259.88 452.301 257.916 454.498 255.329C465.934 241.892 448.063 228.003 435.179 228.003ZM425.862 239.335C428.074 239.335 429.866 241.128 429.866 243.341C429.866 245.555 428.074 247.348 425.862 247.348C423.65 247.348 421.858 245.555 421.858 243.341C421.858 241.128 423.65 239.335 425.862 239.335ZM417.854 255.329C417.854 253.115 419.646 251.322 421.858 251.322C424.07 251.322 425.862 253.115 425.862 255.329C425.862 257.542 424.07 259.335 421.858 259.335C419.646 259.335 417.854 257.542 417.854 255.329ZM427.856 269.997C425.644 269.997 423.852 268.204 423.852 265.991C423.852 263.777 425.644 261.985 427.856 261.985C430.069 261.985 431.86 263.777 431.86 265.991C431.845 268.204 430.069 269.997 427.856 269.997ZM437.173 240.66C434.961 240.66 433.169 238.868 433.169 236.654C433.169 234.441 434.961 232.648 437.173 232.648C439.385 232.648 441.177 234.441 441.177 236.654C441.177 238.868 439.385 240.66 437.173 240.66Z" fill="#F9F9F9"/>
<path d="M100.553 81.0567H49.0145C41.7387 81.0567 35.8339 75.1489 35.8339 67.8694V16.3049C35.8339 9.02534 41.7387 3.11755 49.0145 3.11755H100.569C107.829 3.11755 113.734 9.02534 113.734 16.3049V67.885C113.734 75.1489 107.829 81.0567 100.553 81.0567Z" fill="#FC8139"/>
<path fill-rule="evenodd" clip-rule="evenodd" d="M49.0145 5.11755C42.8442 5.11755 37.8339 10.129 37.8339 16.3049V67.8694C37.8339 74.0453 42.8442 79.0567 49.0145 79.0567H100.553C106.725 79.0567 111.734 74.0437 111.734 67.885V16.3049C111.734 10.1274 106.722 5.11755 100.569 5.11755H49.0145ZM33.8339 16.3049C33.8339 7.92172 40.6331 1.11755 49.0145 1.11755H100.569C108.936 1.11755 115.734 7.92327 115.734 16.3049V67.885C115.734 76.254 108.933 83.0567 100.553 83.0567H49.0145C40.6331 83.0567 33.8339 76.2525 33.8339 67.8694V16.3049Z" fill="white"/>
<path d="M57.7081 21.6826H91.9995V32.7188H88.8991C88.4317 30.895 87.9799 29.4609 87.5281 28.401C87.0763 27.341 86.5933 26.546 86.0792 25.9849C85.565 25.4393 85.0353 25.0496 84.4433 24.8158C83.8668 24.582 82.9943 24.4728 81.8258 24.4728H77.8062V56.9423C77.8062 58.1893 77.8685 59.1869 78.0087 59.9195C78.149 60.6522 78.3515 61.2445 78.6475 61.681C78.928 62.1174 79.3175 62.4448 79.8004 62.6942C80.2834 62.9436 81.0468 63.1774 82.0751 63.4112V64.97H67.5858V63.4112C68.2245 63.2709 68.7854 63.0995 69.2684 62.928C69.7514 62.7565 70.1565 62.5539 70.4525 62.3045C70.7641 62.0551 71.0134 61.7433 71.2159 61.3692C71.4184 60.9951 71.5742 60.4651 71.6833 59.8104C71.7923 59.1557 71.8547 58.1893 71.8547 56.9267V24.4728H67.8662C66.8691 24.4728 66.0589 24.5664 65.4046 24.7534C64.7658 24.9405 64.1582 25.3458 63.6129 25.9381C63.0676 26.546 62.569 27.4033 62.1016 28.5101C61.6498 29.6168 61.2136 31.0197 60.8241 32.7188H57.6925V21.6826H57.7081Z" fill="white"/>
<path d="M203.708 188.613C197.678 188.613 192.802 183.734 192.802 177.701C192.802 171.669 197.678 166.79 203.708 166.79C209.737 166.79 214.614 171.669 214.614 177.701C214.614 183.734 209.737 188.613 203.708 188.613Z" fill="#E1E1E1"/>
<path d="M314.325 258.758C308.296 258.758 303.419 253.879 303.419 247.846C303.419 241.814 308.296 236.935 314.325 236.935C320.355 236.935 325.231 241.814 325.231 247.846C325.231 253.879 320.355 258.758 314.325 258.758Z" fill="#E1E1E1"/>
<path d="M267.585 427.106C261.556 427.106 256.679 422.227 256.679 416.195C256.679 410.162 261.556 405.283 267.585 405.283C273.615 405.283 278.491 410.162 278.491 416.195C278.491 422.227 273.615 427.106 267.585 427.106Z" fill="#E1E1E1"/>
<path d="M195.918 492.575C189.888 492.575 185.012 487.696 185.012 481.664C185.012 475.631 189.888 470.752 195.918 470.752C201.947 470.752 206.824 475.631 206.824 481.664C206.824 487.696 201.947 492.575 195.918 492.575Z" fill="#E1E1E1"/>
<path d="M480.703 563.765H429.149C421.874 563.765 415.969 557.857 415.969 550.578V498.997C415.969 491.718 421.874 485.81 429.149 485.81H480.703C487.979 485.81 493.884 491.718 493.884 498.997V550.578C493.884 557.857 487.979 563.765 480.703 563.765Z" fill="#FC8139"/>
<path fill-rule="evenodd" clip-rule="evenodd" d="M429.149 487.81C422.979 487.81 417.969 492.822 417.969 498.997V550.578C417.969 556.753 422.979 561.765 429.149 561.765H480.703C486.874 561.765 491.884 556.753 491.884 550.578V498.997C491.884 492.822 486.874 487.81 480.703 487.81H429.149ZM413.969 498.997C413.969 490.614 420.768 483.81 429.149 483.81H480.703C489.085 483.81 495.884 490.614 495.884 498.997V550.578C495.884 558.961 489.085 565.765 480.703 565.765H429.149C420.768 565.765 413.969 558.961 413.969 550.578V498.997Z" fill="white"/>
<path d="M475.126 536.315H435.444C434.026 536.315 433.122 534.772 433.839 533.54L440.819 521.506C441.535 520.275 443.327 520.275 444.044 521.506L450.198 532.106L461.447 512.699C462.163 511.468 463.939 511.468 464.656 512.699L476.73 533.525C477.447 534.772 476.559 536.315 475.126 536.315Z" fill="#F9F9F9"/>
<path d="M449.029 518.888C451.637 518.888 453.75 516.773 453.75 514.165C453.75 511.556 451.637 509.441 449.029 509.441C446.422 509.441 444.309 511.556 444.309 514.165C444.309 516.773 446.422 518.888 449.029 518.888Z" fill="#F9F9F9"/>
<path d="M174.495 483.176C174.495 481.446 175.897 480.058 177.611 480.058C179.325 480.058 180.727 481.446 180.727 483.176C180.727 484.89 179.325 486.293 177.611 486.293C175.897 486.293 174.495 484.89 174.495 483.176ZM160.473 483.176C160.473 481.446 161.876 480.058 163.589 480.058C165.303 480.058 166.705 481.446 166.705 483.176C166.705 484.89 165.303 486.293 163.589 486.293C161.876 486.293 160.473 484.89 160.473 483.176ZM146.451 483.176C146.451 481.446 147.854 480.058 149.567 480.058C151.281 480.058 152.683 481.446 152.683 483.176C152.683 484.89 151.281 486.293 149.567 486.293C147.854 486.293 146.451 484.89 146.451 483.176ZM132.429 483.176C132.429 481.446 133.816 480.058 135.545 480.058C137.259 480.058 138.661 481.446 138.661 483.176C138.661 484.89 137.259 486.293 135.545 486.293C133.816 486.293 132.429 484.89 132.429 483.176ZM118.408 483.176C118.408 481.446 119.794 480.058 121.524 480.058C123.237 480.058 124.639 481.446 124.639 483.176C124.639 484.89 123.237 486.293 121.524 486.293C119.794 486.293 118.408 484.89 118.408 483.176ZM104.386 483.176C104.386 481.446 105.772 480.058 107.502 480.058C109.215 480.058 110.618 481.446 110.618 483.176C110.618 484.89 109.215 486.293 107.502 486.293C105.772 486.293 104.386 484.89 104.386 483.176ZM90.3636 483.176C90.3636 481.446 91.7658 480.058 93.4796 480.058C95.1934 480.058 96.5956 481.446 96.5956 483.176C96.5956 484.89 95.1934 486.293 93.4796 486.293C91.7658 486.293 90.3636 484.89 90.3636 483.176ZM76.3417 483.176C76.3417 481.446 77.7439 480.058 79.4577 480.058C81.1715 480.058 82.5737 481.446 82.5737 483.176C82.5737 484.89 81.1715 486.293 79.4577 486.293C77.7439 486.293 76.3417 484.89 76.3417 483.176ZM62.3197 483.176C62.3197 481.446 63.7219 480.058 65.4357 480.058C67.1495 480.058 68.5517 481.446 68.5517 483.176C68.5517 484.89 67.1495 486.293 65.4357 486.293C63.7219 486.293 62.3197 484.89 62.3197 483.176ZM48.2978 483.176C48.2978 481.446 49.6844 480.058 51.4138 480.058C53.1276 480.058 54.5298 481.446 54.5298 483.176C54.5298 484.89 53.1276 486.293 51.4138 486.293C49.6844 486.293 48.2978 484.89 48.2978 483.176ZM37.3918 480.058C37.3918 478.328 38.7785 476.941 40.5078 476.941C42.2216 476.941 43.6238 478.328 43.6238 480.058C43.6238 481.773 42.2216 483.176 40.5078 483.176C38.7785 483.176 37.3918 481.773 37.3918 480.058ZM37.3918 466.029C37.3918 464.299 38.7785 462.912 40.5078 462.912C42.2216 462.912 43.6238 464.299 43.6238 466.029C43.6238 467.744 42.2216 469.147 40.5078 469.147C38.7785 469.147 37.3918 467.744 37.3918 466.029ZM37.3918 452C37.3918 450.27 38.7785 448.883 40.5078 448.883C42.2216 448.883 43.6238 450.27 43.6238 452C43.6238 453.715 42.2216 455.118 40.5078 455.118C38.7785 455.118 37.3918 453.715 37.3918 452Z" fill="#ADADAD"/>
<path d="M384.824 249.358C384.824 247.644 386.211 246.241 387.94 246.241C389.654 246.241 391.056 247.644 391.056 249.358C391.056 251.073 389.654 252.476 387.94 252.476C386.211 252.476 384.824 251.073 384.824 249.358ZM370.802 249.358C370.802 247.644 372.189 246.241 373.918 246.241C375.632 246.241 377.034 247.644 377.034 249.358C377.034 251.073 375.632 252.476 373.918 252.476C372.189 252.476 370.802 251.073 370.802 249.358ZM356.781 249.358C356.781 247.644 358.183 246.241 359.897 246.241C361.61 246.241 363.013 247.644 363.013 249.358C363.013 251.073 361.61 252.476 359.897 252.476C358.183 252.476 356.781 251.073 356.781 249.358ZM342.759 249.358C342.759 247.644 344.161 246.241 345.875 246.241C347.588 246.241 348.991 247.644 348.991 249.358C348.991 251.073 347.588 252.476 345.875 252.476C344.161 252.476 342.759 251.073 342.759 249.358ZM328.737 249.358C328.737 247.644 330.139 246.241 331.853 246.241C333.566 246.241 334.969 247.644 334.969 249.358C334.969 251.073 333.566 252.476 331.853 252.476C330.139 252.476 328.737 251.073 328.737 249.358Z" fill="#ADADAD"/>
<path d="M73.2257 91.9214C72.4 91.9214 71.6054 91.594 71.0133 91.0017C70.8731 90.8614 70.7485 90.7055 70.6394 90.5341C70.5148 90.3626 70.4213 90.1911 70.3434 90.0041C70.2655 89.8014 70.2032 89.6144 70.172 89.4118C70.1253 89.2091 70.1097 89.0065 70.1097 88.8038C70.1097 88.6012 70.1253 88.3985 70.172 88.1959C70.2032 87.9933 70.2655 87.8062 70.3434 87.6036C70.4213 87.4165 70.5148 87.245 70.6394 87.0736C70.7485 86.9021 70.8731 86.7462 71.0133 86.6059C72.1818 85.4369 74.2696 85.4369 75.438 86.6059C75.5783 86.7462 75.7029 86.9021 75.812 87.0736C75.9366 87.245 76.0301 87.4165 76.108 87.6036C76.1859 87.8062 76.2482 87.9933 76.2794 88.1959C76.3261 88.3985 76.3417 88.6012 76.3417 88.8038C76.3417 89.63 76.0145 90.425 75.438 91.0017C74.846 91.594 74.0514 91.9214 73.2257 91.9214Z" fill="#ADADAD"/>
<path d="M167.142 177.654C167.142 175.94 168.528 174.537 170.258 174.537C171.971 174.537 173.374 175.94 173.374 177.654C173.374 179.369 171.971 180.772 170.258 180.772C168.528 180.772 167.142 179.369 167.142 177.654ZM153.571 177.654C153.571 175.94 154.958 174.537 156.687 174.537C158.401 174.537 159.788 175.94 159.788 177.654C159.788 179.369 158.401 180.772 156.687 180.772C154.958 180.772 153.571 179.369 153.571 177.654ZM139.986 177.654C139.986 175.94 141.388 174.537 143.117 174.537C144.831 174.537 146.233 175.94 146.233 177.654C146.233 179.369 144.831 180.772 143.117 180.772C141.388 180.772 139.986 179.369 139.986 177.654ZM126.431 177.654C126.431 175.94 127.818 174.537 129.547 174.537C131.261 174.537 132.648 175.94 132.648 177.654C132.648 179.369 131.261 180.772 129.547 180.772C127.818 180.772 126.431 179.369 126.431 177.654ZM112.861 177.654C112.861 175.94 114.248 174.537 115.961 174.537C117.691 174.537 119.093 175.94 119.093 177.654C119.093 179.369 117.691 180.772 115.961 180.772C114.248 180.772 112.861 179.369 112.861 177.654ZM99.2754 177.654C99.2754 175.94 100.678 174.537 102.407 174.537C104.121 174.537 105.523 175.94 105.523 177.654C105.523 179.369 104.121 180.772 102.407 180.772C100.678 180.772 99.2754 179.369 99.2754 177.654ZM88.0266 179.728C86.3752 179.244 85.4404 177.499 85.9389 175.846C86.4219 174.21 88.1669 173.259 89.8027 173.758C91.4542 174.241 92.389 175.987 91.906 177.639C91.501 178.979 90.2546 179.868 88.9147 179.868C88.6187 179.868 88.3227 179.821 88.0266 179.728ZM75.438 171.139C74.3786 169.783 74.6123 167.819 75.9678 166.759C77.3232 165.699 79.2863 165.932 80.3457 167.289C81.4052 168.645 81.1715 170.609 79.816 171.669C79.2396 172.121 78.5696 172.323 77.8841 172.323C76.9649 172.323 76.0457 171.918 75.438 171.139ZM70.1409 156.829C70.063 155.114 71.3873 153.649 73.1011 153.571C74.8304 153.493 76.2794 154.834 76.3573 156.549C76.4352 158.263 75.1109 159.728 73.3971 159.806C73.3348 159.806 73.288 159.806 73.2413 159.806C71.5898 159.806 70.2032 158.497 70.1409 156.829ZM70.1097 143.112C70.1097 141.397 71.4963 139.994 73.2257 139.994C74.9395 139.994 76.3417 141.397 76.3417 143.112C76.3417 144.827 74.9395 146.229 73.2257 146.229C71.4963 146.229 70.1097 144.827 70.1097 143.112ZM70.1097 129.535C70.1097 127.805 71.4963 126.417 73.2257 126.417C74.9395 126.417 76.3417 127.805 76.3417 129.535C76.3417 131.265 74.9395 132.652 73.2257 132.652C71.4963 132.652 70.1097 131.265 70.1097 129.535ZM70.1097 115.958C70.1097 114.243 71.4963 112.84 73.2257 112.84C74.9395 112.84 76.3417 114.243 76.3417 115.958C76.3417 117.673 74.9395 119.075 73.2257 119.075C71.4963 119.075 70.1097 117.673 70.1097 115.958ZM70.1097 102.381C70.1097 100.666 71.4963 99.2633 73.2257 99.2633C74.9395 99.2633 76.3417 100.666 76.3417 102.381C76.3417 104.096 74.9395 105.498 73.2257 105.498C71.4963 105.498 70.1097 104.096 70.1097 102.381Z" fill="#ADADAD"/>
<path d="M183.843 180.772C183.018 180.772 182.223 180.445 181.646 179.852C181.054 179.276 180.727 178.481 180.727 177.654C180.727 177.452 180.743 177.249 180.79 177.046C180.821 176.844 180.883 176.657 180.961 176.47C181.039 176.267 181.132 176.096 181.257 175.924C181.366 175.753 181.491 175.597 181.646 175.441C181.787 175.301 181.942 175.176 182.114 175.067C182.285 174.958 182.457 174.849 182.659 174.771C182.846 174.693 183.033 174.63 183.236 174.599C184.248 174.397 185.323 174.724 186.04 175.441C186.196 175.597 186.32 175.753 186.43 175.924C186.554 176.096 186.648 176.267 186.726 176.47C186.803 176.657 186.866 176.844 186.897 177.046C186.944 177.249 186.959 177.452 186.959 177.654C186.959 178.481 186.632 179.276 186.04 179.852C185.9 180.008 185.744 180.133 185.573 180.242C185.401 180.351 185.23 180.46 185.043 180.538C184.856 180.616 184.653 180.678 184.451 180.71C184.248 180.756 184.046 180.772 183.843 180.772Z" fill="#ADADAD"/>
<path d="M453.376 480.058C452.55 480.058 451.756 479.731 451.179 479.138C450.587 478.562 450.26 477.767 450.26 476.941C450.26 476.114 450.587 475.319 451.179 474.743C452.332 473.574 454.42 473.574 455.573 474.743C456.165 475.319 456.492 476.114 456.492 476.941C456.492 477.767 456.165 478.562 455.573 479.138C454.996 479.731 454.202 480.058 453.376 480.058Z" fill="#ADADAD"/>
<path d="M450.26 463.301C450.26 461.587 451.647 460.184 453.376 460.184C455.09 460.184 456.492 461.587 456.492 463.301C456.492 465.032 455.09 466.419 453.376 466.419C451.647 466.419 450.26 465.032 450.26 463.301ZM450.26 449.677C450.26 447.947 451.647 446.56 453.376 446.56C455.09 446.56 456.492 447.947 456.492 449.677C456.492 451.392 455.09 452.795 453.376 452.795C451.647 452.795 450.26 451.392 450.26 449.677ZM450.182 436.334C450.011 434.62 451.273 433.108 452.987 432.936C454.7 432.78 456.212 434.043 456.383 435.758C456.539 437.472 455.277 438.984 453.563 439.14C453.47 439.156 453.376 439.156 453.267 439.156C451.678 439.156 450.323 437.955 450.182 436.334ZM445.649 425.766C444.511 424.456 444.651 422.492 445.945 421.37C447.253 420.232 449.216 420.372 450.338 421.666C451.475 422.976 451.335 424.94 450.042 426.078C449.45 426.576 448.718 426.841 447.986 426.841C447.129 426.841 446.256 426.467 445.649 425.766ZM435.818 419.78C434.135 419.39 433.107 417.707 433.512 416.023C433.901 414.355 435.584 413.327 437.267 413.716C438.934 414.122 439.962 415.805 439.572 417.473C439.23 418.907 437.952 419.874 436.55 419.874C436.301 419.874 436.051 419.842 435.818 419.78ZM419.848 416.148C419.848 414.433 421.235 413.031 422.964 413.031C424.678 413.031 426.08 414.433 426.08 416.148C426.08 417.878 424.678 419.266 422.964 419.266C421.235 419.266 419.848 417.878 419.848 416.148ZM406.216 416.148C406.216 414.433 407.602 413.031 409.332 413.031C411.045 413.031 412.448 414.433 412.448 416.148C412.448 417.878 411.045 419.266 409.332 419.266C407.602 419.266 406.216 417.878 406.216 416.148ZM392.583 416.148C392.583 414.433 393.985 413.031 395.699 413.031C397.429 413.031 398.815 414.433 398.815 416.148C398.815 417.878 397.429 419.266 395.699 419.266C393.985 419.266 392.583 417.878 392.583 416.148ZM378.966 416.148C378.966 414.433 380.353 413.031 382.082 413.031C383.796 413.031 385.198 414.433 385.198 416.148C385.198 417.878 383.796 419.266 382.082 419.266C380.353 419.266 378.966 417.878 378.966 416.148ZM365.334 416.148C365.334 414.433 366.736 413.031 368.45 413.031C370.179 413.031 371.566 414.433 371.566 416.148C371.566 417.878 370.179 419.266 368.45 419.266C366.736 419.266 365.334 417.878 365.334 416.148ZM351.717 416.148C351.717 414.433 353.104 413.031 354.833 413.031C356.547 413.031 357.949 414.433 357.949 416.148C357.949 417.878 356.547 419.266 354.833 419.266C353.104 419.266 351.717 417.878 351.717 416.148ZM338.085 416.148C338.085 414.433 339.471 413.031 341.201 413.031C342.914 413.031 344.317 414.433 344.317 416.148C344.317 417.878 342.914 419.266 341.201 419.266C339.471 419.266 338.085 417.878 338.085 416.148ZM324.452 416.148C324.452 414.433 325.854 413.031 327.568 413.031C329.298 413.031 330.684 414.433 330.684 416.148C330.684 417.878 329.298 419.266 327.568 419.266C325.854 419.266 324.452 417.878 324.452 416.148ZM310.835 416.148C310.835 414.433 312.222 413.031 313.951 413.031C315.665 413.031 317.067 414.433 317.067 416.148C317.067 417.878 315.665 419.266 313.951 419.266C312.222 419.266 310.835 417.878 310.835 416.148ZM297.203 416.148C297.203 414.433 298.589 413.031 300.319 413.031C302.033 413.031 303.435 414.433 303.435 416.148C303.435 417.878 302.033 419.266 300.319 419.266C298.589 419.266 297.203 417.878 297.203 416.148Z" fill="#ADADAD"/>
<path d="M286.671 419.266C285.845 419.266 285.051 418.939 284.474 418.346C283.882 417.77 283.555 416.975 283.555 416.148C283.555 415.946 283.57 415.743 283.617 415.541C283.648 415.338 283.711 415.151 283.789 414.964C283.866 414.761 283.976 414.59 284.085 414.418C284.194 414.247 284.318 414.091 284.474 413.951C285.627 412.781 287.715 412.781 288.868 413.951C289.023 414.091 289.148 414.247 289.257 414.418C289.366 414.59 289.475 414.761 289.553 414.964C289.631 415.151 289.678 415.338 289.724 415.541C289.771 415.743 289.787 415.946 289.787 416.148C289.787 416.351 289.771 416.554 289.724 416.756C289.678 416.959 289.631 417.146 289.553 417.349C289.475 417.536 289.366 417.707 289.257 417.879C289.148 418.05 289.023 418.206 288.868 418.346C288.291 418.939 287.497 419.266 286.671 419.266Z" fill="#ADADAD"/>
</svg>
