<svg width="1810" height="1348" viewBox="0 0 1810 1348" fill="none" xmlns="http://www.w3.org/2000/svg">
<mask id="mask0" mask-type="alpha" maskUnits="userSpaceOnUse" x="0" y="0" width="1810" height="1348">
<path d="M0 0H1810V1348H0V0Z" fill="#C4C4C4"/>
</mask>
<g mask="url(#mask0)">
<path fill-rule="evenodd" clip-rule="evenodd" d="M1862.33 1216.93C1875.96 1210.78 1882.03 1194.74 1875.87 1181.11C1869.72 1167.47 1853.68 1161.42 1840.05 1167.57C1826.41 1173.72 1820.35 1189.76 1826.5 1203.39C1832.66 1217.03 1848.69 1223.09 1862.33 1216.93ZM1905.5 1167.74C1919.03 1197.73 1905.7 1233.01 1875.7 1246.54C1845.7 1260.08 1810.41 1246.76 1796.88 1216.76C1783.35 1186.77 1796.68 1151.49 1826.68 1137.96C1856.68 1124.42 1891.95 1137.75 1905.5 1167.74Z" fill="#FF622D" fill-opacity="0.2"/>
<path fill-rule="evenodd" clip-rule="evenodd" d="M938.241 511.586C946.406 507.897 956.023 511.533 959.712 519.698L999.76 608.429C1003.45 616.595 999.813 626.211 991.644 629.892C983.479 633.581 973.862 629.945 970.173 621.78L930.125 533.049C926.435 524.883 930.071 515.267 938.241 511.586Z" fill="#FFC716" fill-opacity="0.2"/>
<path fill-rule="evenodd" clip-rule="evenodd" d="M1374.18 492.816C1344.18 506.353 1308.91 493.058 1295.39 463.106L1250.89 364.516C1237.37 334.565 1250.72 299.32 1280.72 285.774C1310.71 272.228 1345.99 285.533 1359.5 315.484L1404.01 414.074C1417.53 444.022 1404.18 479.28 1374.18 492.816ZM1325.02 449.739C1331.16 463.347 1347.2 469.392 1360.82 463.242C1374.46 457.088 1380.53 441.058 1374.39 427.45L1329.88 328.86C1323.74 315.252 1307.7 309.208 1294.07 315.358C1280.44 321.512 1274.37 337.541 1280.51 351.149L1325.02 449.739Z" fill="#FC8139" fill-opacity="0.2"/>
<path fill-rule="evenodd" clip-rule="evenodd" d="M949.758 368.032C941.593 371.722 937.953 381.329 941.647 389.504L962.347 435.358C969.366 450.896 982.23 461.965 997.165 467.127C991.155 481.745 990.947 498.711 997.957 514.254L1018.43 559.616C1031.95 589.577 1067.2 602.894 1097.16 589.378C1105.32 585.688 1108.96 576.08 1105.27 567.906C1101.57 559.732 1091.97 556.101 1083.8 559.794C1070.18 565.94 1054.16 559.887 1048.01 546.27L1027.54 500.907C1021.39 487.29 1027.44 471.269 1041.06 465.123L1140.66 420.166C1170.08 406.885 1183.16 372.279 1169.88 342.869L1140.29 356.219C1146.19 369.29 1140.38 384.671 1127.3 390.573L1027.7 435.531C1014.08 441.677 998.058 435.624 991.912 422.006L971.212 376.152C967.54 367.979 957.928 364.352 949.758 368.032Z" fill="#FC8139" fill-opacity="0.2"/>
<path d="M1155.66 506.256C1161.81 519.882 1177.86 525.945 1191.49 519.795C1205.12 513.641 1211.19 497.602 1205.04 483.967C1198.89 470.34 1182.84 464.278 1169.21 470.428C1161.04 474.121 1151.41 470.48 1147.71 462.306C1144.02 454.131 1147.66 444.501 1155.84 440.817C1185.84 427.28 1221.13 440.612 1234.66 470.6C1248.19 500.588 1234.86 535.869 1204.86 549.406C1174.86 562.942 1139.57 549.611 1126.04 519.623C1122.35 511.448 1125.99 501.818 1134.17 498.134C1142.34 494.449 1151.98 498.077 1155.66 506.256Z" fill="#E7E0D5" fill-opacity="0.2"/>
<path d="M1341.1 380.651C1349.32 398.852 1370.56 406.883 1388.46 398.798C1406.37 390.712 1414.41 369.474 1406.18 351.265C1401.65 341.211 1393.13 334.25 1383.34 331.395C1374.73 328.883 1369.76 319.861 1372.26 311.235C1374.75 302.61 1383.75 297.663 1392.37 300.17C1410.92 305.578 1427.15 318.84 1435.77 337.905C1451.31 372.349 1436.22 412.922 1401.84 428.44C1367.46 443.958 1327.05 428.441 1311.5 393.997C1307.8 385.813 1311.43 376.178 1319.6 372.498C1327.79 368.809 1337.4 372.459 1341.1 380.651Z" fill="#E7E0D5" fill-opacity="0.2"/>
<path fill-rule="evenodd" clip-rule="evenodd" d="M1827.94 444.033C1841.9 449.329 1857.49 442.299 1862.75 428.316C1868.02 414.334 1860.96 398.714 1847 393.417C1833.04 388.121 1817.45 395.151 1812.18 409.134C1809.02 417.524 1799.67 421.742 1791.29 418.564C1782.92 415.385 1778.68 406.009 1781.84 397.619C1793.42 366.869 1827.71 351.392 1858.44 363.042C1889.16 374.692 1904.68 409.072 1893.1 439.822C1881.51 470.572 1847.22 486.049 1816.5 474.399C1808.12 471.22 1803.88 461.844 1807.04 453.454C1810.21 445.082 1819.56 440.854 1827.94 444.033Z" fill="#AF602B" fill-opacity="0.2"/>
<path fill-rule="evenodd" clip-rule="evenodd" d="M1802.66 389.045C1811.04 392.211 1815.26 401.582 1812.1 409.963C1808.93 418.344 1799.56 422.571 1791.18 419.405C1782.8 416.24 1778.57 406.869 1781.74 398.488C1784.9 390.107 1794.27 385.88 1802.66 389.045Z" fill="#FF622D" fill-opacity="0.2"/>
<path fill-rule="evenodd" clip-rule="evenodd" d="M1140.32 356.27C1136.63 348.105 1140.27 338.488 1148.44 334.807C1156.61 331.127 1166.22 334.754 1169.91 342.919C1173.6 351.084 1169.96 360.701 1161.79 364.382C1153.62 368.075 1144.02 364.444 1140.32 356.27Z" fill="#FF622D" fill-opacity="0.2"/>
<path fill-rule="evenodd" clip-rule="evenodd" d="M1073.68 335.449C1087.32 329.295 1093.39 313.257 1087.23 299.621C1081.08 285.995 1065.03 279.932 1051.41 286.082C1037.77 292.236 1031.71 308.275 1037.86 321.91C1044.01 335.537 1060.05 341.604 1073.68 335.449ZM1116.86 286.254C1130.39 316.243 1117.05 351.524 1087.06 365.06C1057.06 378.597 1021.77 365.265 1008.24 335.277C994.703 305.289 1008.04 270.008 1038.04 256.471C1068.03 242.935 1103.32 256.266 1116.86 286.254Z" fill="#FFC716" fill-opacity="0.2"/>
<path d="M1210.45 298.679C1202.85 281.835 1182.98 274.378 1166.08 282.004L1108.82 307.854C1100.65 311.548 1091.03 307.934 1087.36 299.783C1083.69 291.632 1087.33 282.033 1095.51 278.349L1152.77 252.499C1186.03 237.49 1225.12 252.179 1240.07 285.312L1210.45 298.679Z" fill="#E7E0D5" fill-opacity="0.2"/>
<path fill-rule="evenodd" clip-rule="evenodd" d="M1087.36 299.814C1083.67 291.649 1087.31 282.032 1095.48 278.352C1103.64 274.662 1113.26 278.299 1116.95 286.464C1120.64 294.629 1117 304.246 1108.84 307.926C1100.66 311.62 1091.05 307.979 1087.36 299.814Z" fill="#FF622D" fill-opacity="0.2"/>
<path fill-rule="evenodd" clip-rule="evenodd" d="M1047.87 317.139C1044.18 308.974 1047.82 299.357 1055.99 295.677C1064.15 291.987 1073.77 295.623 1077.46 303.789C1081.15 311.954 1077.51 321.571 1069.34 325.251C1061.17 328.936 1051.55 325.308 1047.87 317.139Z" fill="#FF622D" fill-opacity="0.2"/>
<path fill-rule="evenodd" clip-rule="evenodd" d="M1344.69 186.753C1351.04 200.324 1367.16 206.188 1380.71 199.852C1394.26 193.52 1400.11 177.393 1393.76 163.822C1389.96 155.675 1393.47 146.004 1401.6 142.201C1409.73 138.408 1419.41 141.917 1423.21 150.063C1437.15 179.919 1424.29 215.405 1394.47 229.334C1364.65 243.262 1329.18 230.353 1315.23 200.506C1311.43 192.36 1314.95 182.689 1323.07 178.886C1331.21 175.088 1340.88 178.61 1344.69 186.753Z" fill="#FFC716" fill-opacity="0.2"/>
<path fill-rule="evenodd" clip-rule="evenodd" d="M1271.06 306.705C1264.91 293.07 1248.87 287.003 1235.24 293.153C1221.62 299.303 1215.56 315.346 1221.72 328.982C1246.09 382.987 1222.11 446.515 1168.15 470.867C1159.97 474.561 1150.35 470.915 1146.66 462.732C1142.96 454.549 1146.59 444.923 1154.77 441.238C1192.38 424.264 1209.09 379.988 1192.1 342.345C1178.56 312.338 1191.88 277.052 1221.86 263.515C1251.83 249.977 1287.11 263.335 1300.66 293.338C1304.36 301.521 1300.73 311.147 1292.55 314.831C1284.38 318.525 1274.76 314.889 1271.06 306.705Z" fill="#FFC716" fill-opacity="0.2"/>
<path fill-rule="evenodd" clip-rule="evenodd" d="M1119.28 638.856C1132.87 632.722 1138.91 616.701 1132.75 603.065C1126.6 589.43 1110.59 583.359 1097.01 589.489C1088.86 593.17 1079.25 589.52 1075.57 581.342C1071.87 573.168 1075.49 563.55 1083.65 559.874C1113.54 546.383 1148.75 559.751 1162.28 589.74C1175.82 619.728 1162.56 654.971 1132.67 668.463C1124.51 672.148 1114.91 668.494 1111.22 660.316C1107.51 652.15 1111.13 642.541 1119.28 638.856Z" fill="#AF602B" fill-opacity="0.2"/>
<path d="M1371.01 494.247C1333.43 511.209 1316.71 555.422 1333.67 592.988C1337.36 601.154 1333.72 610.77 1325.56 614.451C1317.39 618.14 1307.77 614.504 1304.08 606.339C1279.76 552.434 1303.74 489.004 1357.66 464.66C1365.82 460.97 1375.44 464.606 1379.13 472.772C1382.81 480.95 1379.17 490.558 1371.01 494.247Z" fill="#E7E0D5" fill-opacity="0.2"/>
<path fill-rule="evenodd" clip-rule="evenodd" d="M1949.44 595.752C1924.82 541.192 1860.61 516.935 1806.04 541.569C1797.85 545.267 1788.22 541.625 1784.52 533.442C1780.83 525.259 1784.47 515.629 1792.66 511.94C1863.6 479.92 1947.07 511.446 1979.08 582.377C1982.78 590.56 1979.14 600.19 1970.95 603.879C1962.77 607.568 1953.14 603.936 1949.44 595.752Z" fill="#FFC716" fill-opacity="0.2"/>
<path fill-rule="evenodd" clip-rule="evenodd" d="M1432.39 443.144C1471.61 425.438 1489.06 379.314 1471.36 340.104C1467.67 331.939 1471.3 322.322 1479.47 318.642C1487.64 314.962 1497.25 318.589 1500.94 326.754C1526.01 382.289 1501.3 447.642 1445.75 472.719C1437.58 476.408 1427.97 472.772 1424.28 464.607C1420.59 456.442 1424.22 446.825 1432.39 443.144Z" fill="#FFC716" fill-opacity="0.2"/>
<path fill-rule="evenodd" clip-rule="evenodd" d="M1322.98 178.717C1331.1 174.928 1340.77 178.431 1344.56 186.551C1348.35 194.671 1344.84 204.328 1336.72 208.118C1328.6 211.907 1318.94 208.399 1315.14 200.284C1311.35 192.168 1314.85 182.511 1322.98 178.717Z" fill="#FF622D" fill-opacity="0.2"/>
<path fill-rule="evenodd" clip-rule="evenodd" d="M1146.67 462.759C1142.98 454.594 1146.62 444.977 1154.78 441.297C1162.95 437.607 1172.57 441.244 1176.26 449.409C1179.95 457.574 1176.31 467.191 1168.14 470.871C1159.97 474.561 1150.36 470.934 1146.67 462.759Z" fill="#FF622D" fill-opacity="0.2"/>
<path fill-rule="evenodd" clip-rule="evenodd" d="M1075.55 581.337C1071.86 573.172 1075.5 563.555 1083.67 559.875C1091.84 556.194 1101.45 559.821 1105.14 567.986C1108.83 576.152 1105.19 585.768 1097.02 589.449C1088.86 593.129 1079.23 589.506 1075.55 581.337Z" fill="#FF622D" fill-opacity="0.2"/>
<path fill-rule="evenodd" clip-rule="evenodd" d="M941.452 389.076C937.762 380.911 941.399 371.294 949.568 367.613C957.737 363.933 967.35 367.56 971.04 375.725C974.729 383.89 971.093 393.507 962.924 397.188C954.754 400.868 945.132 397.245 941.452 389.076Z" fill="#FF622D" fill-opacity="0.2"/>
<path fill-rule="evenodd" clip-rule="evenodd" d="M1107.37 480.503C1103.68 472.338 1107.32 462.721 1115.48 459.04C1123.65 455.351 1133.27 458.987 1136.96 467.152C1140.65 475.317 1137.01 484.934 1128.84 488.615C1120.67 492.308 1111.05 488.672 1107.37 480.503Z" fill="#AF602B" fill-opacity="0.2"/>
<path fill-rule="evenodd" clip-rule="evenodd" d="M1067.64 498.441C1063.95 490.276 1067.59 480.659 1075.76 476.978C1083.93 473.298 1093.54 476.925 1097.23 485.09C1100.92 493.255 1097.28 502.872 1089.11 506.553C1080.94 510.233 1071.33 506.606 1067.64 498.441Z" fill="#AF602B" fill-opacity="0.2"/>
<path fill-rule="evenodd" clip-rule="evenodd" d="M1088.41 623.343C1084.72 615.178 1088.35 605.561 1096.52 601.88C1104.69 598.191 1114.31 601.827 1118 609.992C1121.68 618.157 1118.05 627.774 1109.88 631.455C1101.7 635.139 1092.09 631.512 1088.41 623.343Z" fill="#FF622D" fill-opacity="0.2"/>
<path fill-rule="evenodd" clip-rule="evenodd" d="M1049.09 641.081C1045.4 632.916 1049.04 623.299 1057.21 619.619C1065.38 615.929 1074.99 619.566 1078.68 627.731C1082.37 635.896 1078.73 645.513 1070.57 649.193C1062.4 652.883 1052.78 649.246 1049.09 641.081Z" fill="#FF622D" fill-opacity="0.2"/>
<path fill-rule="evenodd" clip-rule="evenodd" d="M1349.54 486.135C1345.85 477.97 1349.48 468.353 1357.65 464.673C1365.82 460.983 1375.43 464.62 1379.12 472.785C1382.81 480.95 1379.18 490.567 1371.01 494.247C1362.84 497.937 1353.23 494.3 1349.54 486.135Z" fill="#FF622D" fill-opacity="0.2"/>
<path fill-rule="evenodd" clip-rule="evenodd" d="M1271.55 307.726C1267.86 299.561 1271.49 289.944 1279.66 286.263C1287.83 282.574 1297.45 286.21 1301.14 294.375C1304.82 302.54 1301.19 312.157 1293.02 315.838C1284.85 319.518 1275.24 315.891 1271.55 307.726Z" fill="#FF622D" fill-opacity="0.2"/>
<path fill-rule="evenodd" clip-rule="evenodd" d="M1417.43 584.123C1431.07 577.969 1437.13 561.93 1430.98 548.295C1424.83 534.659 1408.78 528.606 1395.16 534.756C1381.53 540.906 1375.45 556.948 1381.61 570.584C1387.75 584.223 1403.8 590.277 1417.43 584.123ZM1460.6 534.928C1474.14 564.916 1460.8 600.197 1430.8 613.734C1400.81 627.27 1365.52 613.939 1351.98 583.951C1338.45 553.963 1351.79 518.682 1381.78 505.145C1411.77 491.612 1447.06 504.944 1460.6 534.928Z" fill="#FFC716" fill-opacity="0.2"/>
<path fill-rule="evenodd" clip-rule="evenodd" d="M1732.21 491.931C1724.04 495.62 1720.41 505.237 1724.1 513.42C1730.26 527.056 1724.21 543.086 1710.59 549.232L1611.97 593.752C1598.36 599.898 1582.33 593.826 1576.18 580.2C1572.48 572.026 1562.87 568.376 1554.7 572.07C1546.53 575.759 1542.9 585.376 1546.59 593.56C1553.62 609.116 1566.49 620.203 1581.43 625.375C1575.43 640.001 1575.23 656.986 1582.25 672.547L1602.75 717.964C1616.28 747.961 1651.55 761.305 1681.5 747.789C1689.66 744.099 1693.3 734.483 1689.6 726.299C1685.91 718.125 1676.3 714.476 1668.12 718.169C1654.51 724.315 1638.48 718.244 1632.33 704.618L1611.82 659.2C1605.67 645.565 1611.72 629.535 1625.34 623.389L1723.95 578.869C1753.91 565.349 1767.22 530.071 1753.69 500.083C1749.99 491.878 1740.37 488.241 1732.21 491.931Z" fill="#FC8139" fill-opacity="0.2"/>
<path d="M1567.95 601.681C1576.12 597.987 1579.76 588.37 1576.07 580.196C1569.92 566.569 1575.97 550.535 1589.59 544.38L1688.25 499.84C1701.88 493.69 1717.9 499.752 1724.05 513.387C1727.75 521.562 1737.37 525.198 1745.54 521.513C1753.72 517.829 1757.35 508.203 1753.66 500.029C1740.13 470.041 1704.86 456.701 1674.89 470.234L1576.23 514.774C1575.02 515.325 1573.83 515.908 1572.67 516.522C1554.01 495.281 1523 487.707 1495.9 499.936L1438.67 525.774C1430.5 529.468 1426.86 539.085 1430.55 547.259C1434.25 555.433 1443.86 559.069 1452.04 555.385L1509.27 529.547C1523.52 523.112 1539.9 527.455 1549.24 539.123C1539.94 555.184 1538.25 575.341 1546.47 593.56C1550.15 601.729 1559.77 605.365 1567.95 601.681Z" fill="#E7E0D5" fill-opacity="0.2"/>
<path fill-rule="evenodd" clip-rule="evenodd" d="M1546.45 593.33C1540.29 579.695 1524.25 573.641 1510.62 579.791C1497 585.941 1490.92 601.984 1497.07 615.619C1503.22 629.246 1519.27 635.308 1532.9 629.158C1541.07 625.465 1550.7 629.106 1554.4 637.28C1558.09 645.455 1554.45 655.085 1546.27 658.769C1516.27 672.306 1480.98 658.974 1467.45 628.986C1453.92 598.998 1467.25 563.717 1497.25 550.18C1527.25 536.644 1562.54 549.975 1576.07 579.963C1579.76 588.138 1576.12 597.768 1567.94 601.452C1559.76 605.141 1550.13 601.509 1546.45 593.33Z" fill="#AF602B" fill-opacity="0.2"/>
<path d="M1607.84 994.68C1621.48 988.525 1637.51 994.583 1643.67 1008.22C1649.82 1021.85 1643.75 1037.89 1630.12 1044.05C1616.48 1050.2 1600.45 1044.14 1594.29 1030.51C1590.6 1022.33 1580.98 1018.69 1572.8 1022.39C1564.62 1026.08 1560.98 1035.7 1564.67 1043.87C1578.2 1073.86 1613.49 1087.19 1643.49 1073.66C1673.49 1060.12 1686.83 1024.84 1673.29 994.852C1659.76 964.864 1624.47 951.532 1594.47 965.069C1586.3 968.762 1582.65 978.383 1586.34 986.558C1590.04 994.741 1599.66 998.377 1607.84 994.68Z" fill="#E7E0D5" fill-opacity="0.2"/>
<path fill-rule="evenodd" clip-rule="evenodd" d="M1546.58 593.523C1542.89 585.358 1546.52 575.741 1554.69 572.061C1562.86 568.371 1572.48 572.008 1576.17 580.173C1579.85 588.338 1576.22 597.955 1568.05 601.635C1559.88 605.316 1550.26 601.692 1546.58 593.523Z" fill="#FF622D" fill-opacity="0.2"/>
<path fill-rule="evenodd" clip-rule="evenodd" d="M1724.09 513.393C1720.4 505.228 1724.04 495.611 1732.21 491.931C1740.37 488.241 1749.99 491.878 1753.68 500.043C1757.37 508.208 1753.73 517.825 1745.56 521.505C1737.38 525.19 1727.77 521.562 1724.09 513.393Z" fill="#FF622D" fill-opacity="0.2"/>
<path fill-rule="evenodd" clip-rule="evenodd" d="M1430.54 547.231C1426.85 539.066 1430.49 529.45 1438.66 525.769C1446.82 522.08 1456.44 525.716 1460.13 533.881C1463.82 542.046 1460.18 551.663 1452.01 555.343C1443.83 559.028 1434.23 555.397 1430.54 547.231Z" fill="#FF622D" fill-opacity="0.2"/>
<path fill-rule="evenodd" clip-rule="evenodd" d="M1391.61 565.817C1387.92 557.652 1391.56 548.035 1399.73 544.354C1407.89 540.665 1417.51 544.301 1421.2 552.466C1424.89 560.631 1421.25 570.248 1413.08 573.929C1404.92 577.618 1395.3 573.982 1391.61 565.817Z" fill="#AF602B" fill-opacity="0.2"/>
<path fill-rule="evenodd" clip-rule="evenodd" d="M1817.92 1120.91C1787.94 1134.44 1752.67 1121.1 1739.14 1091.11L1694.57 992.386C1681.04 962.398 1694.36 927.112 1724.34 913.584C1754.32 900.055 1789.59 913.395 1803.12 943.383L1817.38 974.974L1848.47 960.94C1878.45 947.412 1913.72 960.752 1927.25 990.74L1971.82 1089.47C1977.98 1103.1 1994.01 1109.16 2007.64 1103.01L2053.04 1082.52C2066.66 1076.37 2072.72 1060.33 2066.57 1046.7C2062.87 1038.52 2066.51 1028.9 2074.68 1025.2C2082.85 1021.51 2092.48 1025.15 2096.17 1033.33C2109.71 1063.33 2096.38 1098.6 2066.4 1112.13L2021 1132.62C2005.45 1139.65 1988.47 1139.43 1973.84 1133.41C1968.68 1148.37 1957.61 1161.24 1942.05 1168.26L1897.64 1188.3C1889.47 1192 1879.85 1188.35 1876.15 1180.18C1872.46 1172 1876.09 1162.38 1884.27 1158.68L1928.67 1138.64C1942.3 1132.49 1948.36 1116.46 1942.2 1102.82L1897.63 1004.09C1891.48 990.458 1875.45 984.4 1861.82 990.55L1830.73 1004.58L1847.66 1042.1C1861.22 1072.1 1847.9 1107.37 1817.92 1120.91ZM1773.51 956.742C1767.36 943.106 1751.33 937.048 1737.7 943.199C1724.07 949.349 1718.02 965.383 1724.17 979.018L1768.74 1077.74C1774.89 1091.38 1790.93 1097.44 1804.55 1091.29C1818.18 1085.14 1824.24 1069.1 1818.08 1055.47L1773.51 956.742Z" fill="#FC8139" fill-opacity="0.2"/>
<path fill-rule="evenodd" clip-rule="evenodd" d="M1860.02 835.1C1860.78 855.034 1877.42 870.481 1897.05 869.767C1916.67 869.052 1932.11 852.444 1931.35 832.51C1930.94 821.494 1925.67 811.848 1917.69 805.515C1910.66 799.943 1909.47 789.722 1915.02 782.696C1920.57 775.669 1930.77 774.481 1937.81 780.058C1952.95 792.066 1962.99 810.451 1963.78 831.338C1965.2 869.059 1935.95 900.878 1898.26 902.244C1860.58 903.609 1829.01 874.001 1827.58 836.28C1827.24 827.317 1834.23 819.78 1843.18 819.458C1852.15 819.137 1859.68 826.137 1860.02 835.1Z" fill="#FFC716" fill-opacity="0.2"/>
<path fill-rule="evenodd" clip-rule="evenodd" d="M1814.65 1122.03C1777.07 1138.99 1760.35 1183.2 1777.31 1220.77C1781 1228.93 1777.36 1238.55 1769.2 1242.23C1761.03 1245.92 1751.41 1242.28 1747.72 1234.12C1723.39 1180.2 1747.38 1116.78 1801.3 1092.44C1809.46 1088.75 1819.08 1092.39 1822.77 1100.55C1826.45 1108.72 1822.82 1118.33 1814.65 1122.03Z" fill="#FFC716" fill-opacity="0.2"/>
<path fill-rule="evenodd" clip-rule="evenodd" d="M1794.03 1113.54C1790.34 1105.37 1793.97 1095.76 1802.14 1092.08C1810.31 1088.39 1819.93 1092.02 1823.61 1100.19C1827.3 1108.35 1823.67 1117.97 1815.5 1121.65C1807.33 1125.33 1797.71 1121.69 1794.03 1113.54Z" fill="#FF622D" fill-opacity="0.2"/>
<path fill-rule="evenodd" clip-rule="evenodd" d="M1623.96 540.739C1637.55 534.606 1643.58 518.584 1637.43 504.948C1631.27 491.313 1615.27 485.243 1601.69 491.372C1593.53 495.057 1583.93 491.404 1580.24 483.225C1576.55 475.051 1580.16 465.433 1588.32 461.757C1618.22 448.266 1653.43 461.635 1666.96 491.623C1680.49 521.611 1667.24 556.855 1637.34 570.346C1629.19 574.031 1619.58 570.377 1615.9 562.199C1612.19 554.033 1615.81 544.425 1623.96 540.739Z" fill="#FFC716" fill-opacity="0.2"/>
<path fill-rule="evenodd" clip-rule="evenodd" d="M1702.78 797.621C1716.37 791.487 1722.4 775.465 1716.24 761.83C1710.09 748.203 1694.08 742.124 1680.5 748.253C1672.35 751.935 1662.74 748.285 1659.06 740.107C1655.36 731.932 1658.98 722.315 1667.14 718.638C1697.04 705.147 1732.24 718.516 1745.78 748.504C1759.31 778.492 1746.06 813.736 1716.16 827.227C1708 830.913 1698.4 827.259 1694.71 819.08C1691.01 810.924 1694.62 801.306 1702.78 797.621Z" fill="#AF602B" fill-opacity="0.2"/>
<path d="M1022.54 656.634C1039.5 694.205 1083.71 710.905 1121.29 693.944C1129.46 690.254 1139.07 693.891 1142.76 702.056C1146.45 710.221 1142.82 719.838 1134.65 723.518C1080.72 747.854 1017.29 723.885 992.952 669.984C989.263 661.819 992.899 652.203 1001.07 648.522C1009.24 644.842 1018.85 648.469 1022.54 656.634Z" fill="#E7E0D5" fill-opacity="0.2"/>
<path fill-rule="evenodd" clip-rule="evenodd" d="M1439.82 648.849C1459.51 692.464 1510.83 711.853 1554.45 692.157C1562.62 688.463 1572.25 692.105 1575.95 700.279C1579.64 708.453 1576 718.074 1567.82 721.768C1507.84 748.846 1437.27 722.179 1410.21 662.221C1406.52 654.047 1410.16 644.426 1418.34 640.732C1426.5 637.043 1436.13 640.675 1439.82 648.849Z" fill="#FC8139" fill-opacity="0.2"/>
<path fill-rule="evenodd" clip-rule="evenodd" d="M1615.89 562.235C1612.2 554.07 1615.84 544.453 1624.01 540.772C1632.17 537.083 1641.79 540.719 1645.48 548.884C1649.17 557.049 1645.53 566.666 1637.36 570.347C1629.2 574.027 1619.57 570.404 1615.89 562.235Z" fill="#FF622D" fill-opacity="0.2"/>
<path fill-rule="evenodd" clip-rule="evenodd" d="M1756.02 623.587C1752.33 615.422 1755.97 605.805 1764.14 602.124C1772.31 598.444 1781.92 602.071 1785.61 610.236C1789.3 618.402 1785.66 628.018 1777.49 631.699C1769.32 635.392 1759.72 631.761 1756.02 623.587Z" fill="#FF622D" fill-opacity="0.2"/>
<path fill-rule="evenodd" clip-rule="evenodd" d="M1554.87 984.981C1546.71 988.67 1543.07 998.278 1546.75 1006.44C1550.44 1014.61 1560.05 1018.24 1568.23 1014.55C1576.39 1010.87 1580.03 1001.26 1576.34 993.093C1572.66 984.923 1563.05 981.287 1554.87 984.981Z" fill="#FF622D" fill-opacity="0.2"/>
<path fill-rule="evenodd" clip-rule="evenodd" d="M1537.14 945.685C1528.98 949.375 1525.34 958.983 1529.02 967.148C1532.71 975.313 1542.32 978.944 1550.5 975.26C1558.66 971.57 1562.3 961.962 1558.61 953.797C1554.92 945.623 1545.31 941.996 1537.14 945.685Z" fill="#FF622D" fill-opacity="0.2"/>
<path fill-rule="evenodd" clip-rule="evenodd" d="M1319.39 1393.14C1305.85 1363.16 1319.16 1327.89 1349.12 1314.37L1447.74 1269.85C1477.7 1256.33 1512.95 1269.67 1526.49 1299.66C1540.02 1329.65 1526.71 1364.92 1496.75 1378.44L1398.13 1422.96C1368.18 1436.48 1332.92 1423.13 1319.39 1393.14ZM1384.77 1393.34L1483.38 1348.82C1497 1342.67 1503.05 1326.64 1496.9 1313.01C1490.74 1299.37 1474.72 1293.31 1461.1 1299.45L1362.49 1343.98C1348.87 1350.13 1342.82 1366.16 1348.97 1379.79C1355.12 1393.42 1371.15 1399.48 1384.77 1393.34Z" fill="#FC8139" fill-opacity="0.2"/>
<path d="M1518.48 1321.43C1548.39 1307.93 1583.62 1321.32 1597.19 1351.36C1600.89 1359.54 1610.49 1363.21 1618.65 1359.52C1626.8 1355.84 1630.42 1346.21 1626.73 1338.02C1605.77 1291.61 1551.31 1270.9 1505.08 1291.76C1496.92 1295.45 1493.3 1305.08 1497 1313.26C1500.7 1321.46 1510.32 1325.12 1518.48 1321.43Z" fill="#E7E0D5" fill-opacity="0.2"/>
<path fill-rule="evenodd" clip-rule="evenodd" d="M1518.47 1321.34C1526.63 1317.65 1530.27 1308.03 1526.58 1299.87C1522.89 1291.71 1513.29 1288.08 1505.11 1291.76C1496.95 1295.45 1493.31 1305.07 1496.99 1313.22C1500.67 1321.39 1510.29 1325.03 1518.47 1321.34Z" fill="#FF622D" fill-opacity="0.2"/>
<path fill-rule="evenodd" clip-rule="evenodd" d="M1338.68 1225.24C1332.53 1211.61 1316.49 1205.55 1302.86 1211.7C1289.22 1217.85 1283.16 1233.89 1289.31 1247.53C1295.46 1261.15 1311.51 1267.22 1325.14 1261.07C1338.77 1254.9 1344.83 1238.86 1338.68 1225.24ZM1289.49 1182.09C1319.49 1168.55 1354.78 1181.88 1368.31 1211.87C1381.84 1241.86 1368.5 1277.14 1338.51 1290.68C1308.51 1304.21 1273.22 1290.88 1259.69 1260.89C1246.16 1230.91 1259.49 1195.62 1289.49 1182.09Z" fill="#FFC716" fill-opacity="0.2"/>
<path d="M1276.13 897.19C1279.82 905.364 1276.16 914.98 1267.98 918.678C1254.32 924.84 1248.24 940.873 1254.39 954.491L1298.92 1053.13C1305.06 1066.74 1321.12 1072.79 1334.77 1066.63C1342.96 1062.93 1352.59 1066.56 1356.28 1074.74C1359.98 1082.91 1356.32 1092.53 1348.13 1096.22C1329.93 1104.44 1309.79 1102.79 1293.74 1093.54C1282.55 1102.78 1278.54 1118.69 1285 1133.03L1310.83 1190.24C1314.53 1198.41 1310.87 1208.03 1302.68 1211.72C1294.49 1215.43 1284.87 1211.79 1281.17 1203.62L1255.34 1146.41C1243.27 1119.65 1250.08 1088.9 1271.07 1070.18C1270.43 1068.99 1269.83 1067.77 1269.26 1066.52L1224.73 967.883C1211.21 937.923 1224.59 902.643 1254.62 889.081C1262.81 885.392 1272.44 889.024 1276.13 897.19Z" fill="#E7E0D5" fill-opacity="0.2"/>
<path fill-rule="evenodd" clip-rule="evenodd" d="M1397.95 695.958C1411.49 725.946 1398.18 761.214 1368.22 774.734L1269.6 819.254C1239.64 832.774 1204.39 819.426 1190.85 789.438C1177.32 759.45 1190.63 724.181 1220.59 710.661L1319.21 666.142C1349.16 652.626 1384.42 665.97 1397.95 695.958ZM1354.85 745.12C1368.47 738.974 1374.52 722.944 1368.37 709.308C1362.21 695.673 1346.19 689.611 1332.57 695.756L1233.95 740.276C1220.34 746.422 1214.29 762.452 1220.44 776.088C1226.59 789.714 1242.62 795.785 1256.24 789.639L1354.85 745.12Z" fill="#FC8139" fill-opacity="0.2"/>
<path fill-rule="evenodd" clip-rule="evenodd" d="M1246.54 910.54C1250.23 918.705 1259.84 922.332 1268.03 918.644C1281.66 912.49 1297.7 918.534 1303.84 932.142L1348.35 1030.73C1354.49 1044.34 1348.42 1060.37 1334.79 1066.52C1326.6 1070.22 1322.96 1079.83 1326.64 1088C1330.33 1096.16 1339.95 1099.79 1348.13 1096.1C1363.7 1089.07 1374.79 1076.2 1379.96 1061.26C1394.59 1067.26 1411.58 1067.46 1427.13 1060.43L1472.56 1039.93C1502.56 1026.39 1515.92 991.128 1502.4 961.181C1498.71 953.016 1489.1 949.388 1480.91 953.077C1472.73 956.775 1469.09 966.383 1472.77 974.552C1478.91 988.16 1472.84 1004.19 1459.2 1010.34L1413.77 1030.85C1400.14 1037 1384.1 1030.96 1377.96 1017.35L1333.45 918.761C1319.93 888.81 1284.65 875.519 1254.66 889.055C1246.49 892.754 1242.85 902.375 1246.54 910.54Z" fill="#FC8139" fill-opacity="0.2"/>
<path fill-rule="evenodd" clip-rule="evenodd" d="M1348.34 1096.05C1334.71 1102.21 1328.64 1118.24 1334.79 1131.88C1340.94 1145.51 1356.99 1151.57 1370.62 1145.42C1384.25 1139.26 1390.32 1123.23 1384.16 1109.59C1380.47 1101.42 1384.11 1091.79 1392.29 1088.1C1400.46 1084.41 1410.09 1088.05 1413.79 1096.22C1427.32 1126.21 1413.99 1161.49 1383.99 1175.03C1353.99 1188.57 1318.7 1175.23 1305.17 1145.25C1291.64 1115.26 1304.97 1079.98 1334.97 1066.44C1343.14 1062.75 1352.77 1066.39 1356.47 1074.56C1360.16 1082.74 1356.52 1092.37 1348.34 1096.05Z" fill="#AF602B" fill-opacity="0.2"/>
<path fill-rule="evenodd" clip-rule="evenodd" d="M1412.77 915.308C1426.41 909.154 1432.47 893.115 1426.32 879.48C1420.17 865.853 1404.12 859.79 1390.5 865.94C1376.86 872.095 1370.79 888.133 1376.95 901.768C1380.64 909.943 1377 919.573 1368.82 923.257C1360.65 926.951 1351.02 923.31 1347.32 915.136C1333.79 885.147 1347.13 849.866 1377.12 836.33C1407.12 822.793 1442.41 836.125 1455.94 866.113C1469.48 896.101 1456.14 931.382 1426.14 944.918C1417.97 948.612 1408.34 944.971 1404.65 936.797C1400.95 928.622 1404.59 919.006 1412.77 915.308Z" fill="#AF602B" fill-opacity="0.2"/>
<path fill-rule="evenodd" clip-rule="evenodd" d="M1241.38 749.094C1259.59 740.872 1267.62 719.634 1259.54 701.734C1251.45 683.834 1230.21 675.806 1212 684.029C1201.94 688.57 1194.98 697.084 1192.12 706.859C1189.61 715.471 1180.59 720.431 1171.97 717.945C1163.34 715.451 1158.38 706.456 1160.9 697.841C1166.31 679.29 1179.58 663.053 1198.66 654.446C1233.11 638.895 1273.69 653.975 1289.21 688.347C1304.72 722.718 1289.19 763.126 1254.74 778.678C1246.54 782.38 1236.92 778.747 1233.23 770.582C1229.53 762.408 1233.19 752.783 1241.38 749.094Z" fill="#FF622D" fill-opacity="0.2"/>
<path fill-rule="evenodd" clip-rule="evenodd" d="M1348.53 1095.92C1340.37 1099.61 1330.75 1095.97 1327.06 1087.81C1323.37 1079.64 1327.01 1070.03 1335.18 1066.35C1343.35 1062.67 1352.96 1066.29 1356.65 1074.46C1360.34 1082.62 1356.7 1092.23 1348.53 1095.92Z" fill="#FF622D" fill-opacity="0.2"/>
<path fill-rule="evenodd" clip-rule="evenodd" d="M1268.01 918.652C1259.84 922.342 1250.23 918.705 1246.54 910.54C1242.85 902.375 1246.49 892.758 1254.65 889.078C1262.82 885.388 1272.44 889.024 1276.13 897.19C1279.82 905.355 1276.17 914.962 1268.01 918.652Z" fill="#FF622D" fill-opacity="0.2"/>
<path fill-rule="evenodd" clip-rule="evenodd" d="M1302.63 1211.76C1294.47 1215.45 1284.85 1211.81 1281.16 1203.65C1277.47 1195.48 1281.11 1185.86 1289.28 1182.18C1297.45 1178.5 1307.06 1182.13 1310.75 1190.29C1314.43 1198.46 1310.8 1208.07 1302.63 1211.76Z" fill="#FF622D" fill-opacity="0.2"/>
<path fill-rule="evenodd" clip-rule="evenodd" d="M1320.98 1251.28C1312.82 1254.97 1303.2 1251.33 1299.51 1243.17C1295.82 1235 1299.46 1225.38 1307.63 1221.7C1315.79 1218.01 1325.41 1221.65 1329.1 1229.81C1332.78 1237.98 1329.15 1247.6 1320.98 1251.28Z" fill="#FF622D" fill-opacity="0.2"/>
<path fill-rule="evenodd" clip-rule="evenodd" d="M1295.52 1019.18C1289.4 1005.6 1273.36 999.569 1259.74 1005.72C1246.1 1011.87 1240.02 1027.88 1246.15 1041.47C1249.83 1049.61 1246.18 1059.22 1238.01 1062.91C1229.83 1066.6 1220.21 1062.99 1216.53 1054.84C1203.05 1024.95 1216.42 989.755 1246.41 976.209C1276.41 962.672 1311.66 975.922 1325.15 1005.81C1328.83 1013.96 1325.18 1023.56 1317 1027.25C1308.82 1030.94 1299.21 1027.32 1295.52 1019.18Z" fill="#FFC716" fill-opacity="0.2"/>
<path fill-rule="evenodd" clip-rule="evenodd" d="M1573.85 930.097C1565.36 911.286 1542.63 902.582 1522.75 911.552C1502.86 920.527 1494.35 943.331 1502.85 962.142C1506.54 970.325 1502.91 979.951 1494.74 983.631C1486.58 987.321 1476.96 983.676 1473.26 975.492C1457.13 939.765 1473.7 898.016 1509.37 881.91C1545.03 865.809 1587.31 880.997 1603.44 916.724C1607.14 924.907 1603.5 934.533 1595.34 938.214C1587.17 941.917 1577.55 938.28 1573.85 930.097Z" fill="#FFC716" fill-opacity="0.2"/>
<path fill-rule="evenodd" clip-rule="evenodd" d="M1347.16 914.946C1330.19 877.348 1285.91 860.645 1248.26 877.639C1218.24 891.184 1182.95 877.875 1169.43 847.905C1155.9 817.935 1169.26 782.655 1199.28 769.11C1207.46 765.412 1217.09 769.045 1220.78 777.219C1224.47 785.393 1220.83 795.014 1212.64 798.703C1199 804.861 1192.93 820.899 1199.07 834.517C1205.22 848.134 1221.26 854.188 1234.91 848.029C1288.93 823.648 1352.46 847.607 1376.82 901.553C1380.51 909.728 1376.87 919.348 1368.68 923.037C1360.49 926.726 1350.85 923.12 1347.16 914.946Z" fill="#FFC716" fill-opacity="0.2"/>
<path d="M1399.38 699.13C1427.4 761.2 1500.45 788.805 1562.54 760.78C1570.71 757.09 1580.32 760.726 1584.01 768.892C1587.7 777.057 1584.07 786.673 1575.9 790.354C1497.46 825.753 1405.19 790.894 1369.8 712.489C1366.11 704.324 1369.75 694.707 1377.92 691.027C1386.09 687.333 1395.7 690.96 1399.38 699.13Z" fill="#E7E0D5" fill-opacity="0.2"/>
<path fill-rule="evenodd" clip-rule="evenodd" d="M1404.12 1190.87C1441.7 1173.91 1458.42 1129.7 1441.45 1092.13C1437.76 1083.96 1441.4 1074.35 1449.57 1070.67C1457.74 1066.99 1467.35 1070.61 1471.04 1078.78C1495.37 1132.68 1471.39 1196.11 1417.47 1220.46C1409.3 1224.15 1399.69 1220.51 1396 1212.35C1392.31 1204.17 1395.94 1194.55 1404.12 1190.87Z" fill="#FF622D" fill-opacity="0.2"/>
<path fill-rule="evenodd" clip-rule="evenodd" d="M956.887 329.729C919.307 346.69 902.584 390.903 919.551 428.47C923.24 436.635 919.604 446.252 911.435 449.932C903.265 453.613 893.653 449.986 889.963 441.82C865.627 387.92 889.608 324.49 943.532 300.154C951.697 296.465 961.314 300.101 965.003 308.266C968.689 316.422 965.052 326.039 956.887 329.729Z" fill="#FC8139" fill-opacity="0.2"/>
<path fill-rule="evenodd" clip-rule="evenodd" d="M1283.03 651.994C1271.74 626.985 1242.31 615.866 1217.3 627.157C1209.14 630.843 1199.54 627.211 1195.87 619.06C1192.18 610.904 1195.82 601.31 1203.97 597.625C1245.3 578.971 1293.93 597.335 1312.58 638.651C1316.26 646.807 1312.63 656.402 1304.47 660.087C1296.31 663.776 1286.7 660.145 1283.03 651.994Z" fill="#FFC716" fill-opacity="0.2"/>
<path fill-rule="evenodd" clip-rule="evenodd" d="M1317.02 1027.24C1308.85 1030.93 1299.24 1027.3 1295.55 1019.13C1291.86 1010.97 1295.5 1001.35 1303.66 997.671C1311.83 993.99 1321.45 997.617 1325.14 1005.78C1328.82 1013.94 1325.19 1023.55 1317.02 1027.24Z" fill="#FF622D" fill-opacity="0.2"/>
<path fill-rule="evenodd" clip-rule="evenodd" d="M1368.89 923.47C1360.72 927.16 1351.1 923.523 1347.41 915.358C1343.72 907.193 1347.36 897.576 1355.53 893.896C1363.7 890.215 1373.31 893.842 1377 902.008C1380.69 910.164 1377.05 919.78 1368.89 923.47Z" fill="#FF622D" fill-opacity="0.2"/>
<path fill-rule="evenodd" clip-rule="evenodd" d="M1489.99 868.291C1481.82 871.98 1472.21 868.344 1468.52 860.179C1464.83 852.013 1468.46 842.397 1476.63 838.716C1484.8 835.036 1494.41 838.663 1498.1 846.828C1501.79 854.993 1498.17 864.606 1489.99 868.291Z" fill="#FF622D" fill-opacity="0.2"/>
<path fill-rule="evenodd" clip-rule="evenodd" d="M1529.72 850.362C1521.55 854.051 1511.94 850.415 1508.25 842.25C1504.56 834.085 1508.19 824.468 1516.36 820.787C1524.53 817.098 1534.15 820.734 1537.84 828.899C1541.52 837.055 1537.89 846.668 1529.72 850.362Z" fill="#FF622D" fill-opacity="0.2"/>
<path fill-rule="evenodd" clip-rule="evenodd" d="M1680.09 748.408C1671.92 752.098 1662.31 748.461 1658.62 740.296C1654.93 732.131 1658.56 722.514 1666.73 718.834C1674.9 715.153 1684.51 718.78 1688.2 726.946C1691.89 735.111 1688.25 744.718 1680.09 748.408Z" fill="#FF622D" fill-opacity="0.2"/>
<path fill-rule="evenodd" clip-rule="evenodd" d="M1494.75 983.641C1486.58 987.33 1476.97 983.694 1473.28 975.529C1469.59 967.363 1473.22 957.747 1481.39 954.066C1489.56 950.377 1499.17 954.013 1502.86 962.178C1506.55 970.334 1502.91 979.951 1494.75 983.641Z" fill="#FF622D" fill-opacity="0.2"/>
<path fill-rule="evenodd" clip-rule="evenodd" d="M1756.75 306.139C1750.6 292.512 1756.67 276.465 1770.3 270.311C1783.94 264.157 1799.97 270.214 1806.13 283.85C1812.28 297.486 1806.21 313.524 1792.58 319.678C1778.94 325.832 1762.9 319.765 1756.75 306.139ZM1756.93 240.7C1726.93 254.237 1713.59 289.522 1727.13 319.506C1740.67 349.49 1775.95 362.825 1805.95 349.289C1835.95 335.752 1849.29 300.467 1835.75 270.483C1822.21 240.486 1786.92 227.154 1756.93 240.7Z" fill="#FFC716" fill-opacity="0.2"/>
<path fill-rule="evenodd" clip-rule="evenodd" d="M1581.69 28.8671C1585.38 37.0322 1581.74 46.6531 1573.56 50.3377C1559.92 56.492 1553.86 72.517 1560 86.1252L1604.51 184.715C1610.65 198.323 1626.68 204.372 1640.32 198.218C1648.49 194.524 1658.12 198.156 1661.81 206.321C1665.5 214.487 1661.85 224.107 1653.67 227.792C1623.68 241.325 1588.41 228.03 1574.9 198.078L1531.29 101.482C1531.29 101.473 1531.29 101.473 1531.29 101.464C1525.14 87.8553 1509.11 81.8065 1495.48 87.9607L1396.75 132.53C1383.12 138.684 1377.05 154.709 1383.2 168.318C1386.89 176.483 1383.24 186.104 1375.06 189.788C1366.89 193.482 1357.26 189.85 1353.57 181.685C1340.06 151.733 1353.41 116.488 1383.39 102.947L1482.11 58.3905C1497.19 51.5825 1513.6 51.5682 1527.92 57.0344C1532.87 41.4828 1544.16 28.0142 1560.21 20.7725C1568.38 17.0788 1578 20.7019 1581.69 28.8671Z" fill="#FC8139" fill-opacity="0.2"/>
<path d="M1684.91 153.099C1712.55 150.027 1740.25 164.854 1752.34 191.643L1778.18 248.88C1781.87 257.054 1778.26 266.663 1770.11 270.344C1761.96 274.025 1752.36 270.38 1748.67 262.197L1722.82 204.96C1716.51 190.97 1701.81 183.391 1687.38 185.523C1683.69 203.579 1671.7 219.652 1653.65 227.805C1645.5 231.486 1635.89 227.845 1632.21 219.676C1628.52 211.511 1632.14 201.902 1640.3 198.226C1653.89 192.093 1659.92 176.08 1653.78 162.472L1609.27 63.882C1603.13 50.2737 1587.13 44.2125 1573.55 50.3419C1565.4 54.0232 1555.79 50.3827 1552.11 42.2134C1548.42 34.0483 1552.04 24.4398 1560.2 20.7634C1590.09 7.27644 1625.27 20.6129 1638.8 50.5605L1683.31 149.15C1683.89 150.456 1684.43 151.779 1684.91 153.099Z" fill="#E7E0D5" fill-opacity="0.2"/>
<path fill-rule="evenodd" clip-rule="evenodd" d="M1653.48 227.933C1667.12 221.779 1683.15 227.836 1689.31 241.472C1695.46 255.098 1689.4 271.146 1675.76 277.3C1662.12 283.454 1646.09 277.396 1639.94 263.761C1636.24 255.587 1626.62 251.941 1618.44 255.639C1610.26 259.333 1606.62 268.954 1610.31 277.128C1623.84 307.116 1659.13 320.447 1689.13 306.911C1719.13 293.374 1732.47 258.089 1718.93 228.105C1705.39 198.121 1670.11 184.785 1640.11 198.322C1631.94 202.016 1628.29 211.637 1631.99 219.811C1635.68 227.985 1645.31 231.617 1653.48 227.933Z" fill="#AF602B" fill-opacity="0.2"/>
<path fill-rule="evenodd" clip-rule="evenodd" d="M1653.26 227.992C1661.42 224.302 1665.06 214.694 1661.37 206.529C1657.68 198.364 1648.08 194.733 1639.9 198.417C1631.72 202.102 1628.1 211.715 1631.79 219.88C1635.48 228.045 1645.09 231.672 1653.26 227.992Z" fill="#FF622D" fill-opacity="0.2"/>
<path fill-rule="evenodd" clip-rule="evenodd" d="M1573.57 50.3336C1581.73 46.644 1585.37 37.0363 1581.68 28.8712C1577.99 20.7061 1568.39 17.0747 1560.21 20.7593C1552.05 24.4488 1548.41 34.0565 1552.1 42.2217C1555.79 50.3959 1565.4 54.0232 1573.57 50.3336Z" fill="#AF602B" fill-opacity="0.2"/>
<path fill-rule="evenodd" clip-rule="evenodd" d="M1556.98 253.641C1565.15 249.951 1568.79 240.344 1565.1 232.179C1561.41 224.013 1551.81 220.382 1543.63 224.067C1535.46 227.756 1531.82 237.364 1535.51 245.529C1539.2 253.694 1548.81 257.335 1556.98 253.641Z" fill="#AF602B" fill-opacity="0.2"/>
<path fill-rule="evenodd" clip-rule="evenodd" d="M1517.67 271.389C1525.84 267.699 1529.48 258.091 1525.79 249.926C1522.1 241.761 1512.5 238.13 1504.32 241.814C1496.14 245.499 1492.51 255.112 1496.2 263.277C1499.89 271.442 1509.51 275.078 1517.67 271.389Z" fill="#AF602B" fill-opacity="0.2"/>
<path fill-rule="evenodd" clip-rule="evenodd" d="M1558.75 407.47C1566.91 403.78 1570.55 394.173 1566.86 386.007C1563.17 377.842 1553.57 374.211 1545.39 377.895C1537.21 381.58 1533.59 391.193 1537.28 399.358C1540.96 407.523 1550.58 411.159 1558.75 407.47Z" fill="#AF602B" fill-opacity="0.2"/>
<path fill-rule="evenodd" clip-rule="evenodd" d="M1579.17 447.08C1587.33 443.39 1590.97 433.782 1587.28 425.617C1583.6 417.452 1573.99 413.821 1565.81 417.505C1557.63 421.19 1554.01 430.803 1557.7 438.968C1561.39 447.133 1571 450.769 1579.17 447.08Z" fill="#AF602B" fill-opacity="0.2"/>
<path fill-rule="evenodd" clip-rule="evenodd" d="M1537.75 465.774C1545.92 462.085 1549.56 452.477 1545.87 444.312C1542.18 436.147 1532.57 432.515 1524.4 436.2C1516.22 439.884 1512.59 449.497 1516.28 457.662C1519.97 465.827 1529.59 469.464 1537.75 465.774Z" fill="#AF602B" fill-opacity="0.2"/>
<path fill-rule="evenodd" clip-rule="evenodd" d="M931.561 496.795C939.726 493.105 943.366 483.497 939.677 475.332C935.987 467.167 926.384 463.536 918.205 467.22C910.04 470.91 906.4 480.517 910.089 488.683C913.779 496.848 923.396 500.484 931.561 496.795Z" fill="#AF602B" fill-opacity="0.2"/>
<path fill-rule="evenodd" clip-rule="evenodd" d="M951.587 541.165C959.752 537.475 963.392 527.867 959.703 519.702C956.013 511.537 946.41 507.906 938.231 511.59C930.066 515.28 926.426 524.888 930.115 533.053C933.805 541.218 943.418 544.845 951.587 541.165Z" fill="#FF622D" fill-opacity="0.2"/>
<path fill-rule="evenodd" clip-rule="evenodd" d="M1012.71 674.296C1020.87 670.606 1024.51 660.999 1020.82 652.834C1017.13 644.669 1007.53 641.037 999.352 644.722C991.173 648.406 987.546 658.019 991.236 666.184C994.925 674.349 1004.53 677.99 1012.71 674.296Z" fill="#AF602B" fill-opacity="0.2"/>
<path fill-rule="evenodd" clip-rule="evenodd" d="M1770.08 270.369C1778.24 266.68 1781.88 257.072 1778.19 248.907C1774.5 240.742 1764.9 237.111 1756.72 240.795C1748.56 244.485 1744.92 254.092 1748.6 262.258C1752.29 270.427 1761.9 274.054 1770.08 270.369Z" fill="#FF622D" fill-opacity="0.2"/>
<path fill-rule="evenodd" clip-rule="evenodd" d="M1788 310.084C1796.16 306.394 1799.8 296.786 1796.11 288.621C1792.42 280.456 1782.82 276.825 1774.64 280.509C1766.46 284.194 1762.84 293.807 1766.53 301.972C1770.22 310.146 1779.83 313.773 1788 310.084Z" fill="#FF622D" fill-opacity="0.2"/>
<path fill-rule="evenodd" clip-rule="evenodd" d="M1639.53 156.909C1633.4 143.329 1639.48 127.318 1653.12 121.163C1666.75 115.009 1682.77 121.031 1688.91 134.621C1692.59 142.768 1702.2 146.386 1710.38 142.688C1718.56 138.99 1722.21 129.391 1718.53 121.245C1705.04 91.3565 1669.79 78.107 1639.79 91.6436C1609.79 105.18 1596.41 140.383 1609.91 170.276C1613.59 178.423 1623.2 182.042 1631.38 178.344C1639.56 174.659 1643.21 165.056 1639.53 156.909Z" fill="#FFC716" fill-opacity="0.2"/>
<path fill-rule="evenodd" clip-rule="evenodd" d="M1457.1 150.719C1474.06 188.289 1457.34 232.498 1419.76 249.46C1411.6 253.149 1407.96 262.757 1411.65 270.922C1415.34 279.087 1424.94 282.719 1433.12 279.034C1487.04 254.699 1511.02 191.269 1486.69 137.355C1483 129.19 1473.4 125.558 1465.22 129.243C1457.04 132.928 1453.41 142.553 1457.1 150.719Z" fill="#FF622D" fill-opacity="0.2"/>
<path fill-rule="evenodd" clip-rule="evenodd" d="M1375.4 190.656C1383.57 186.966 1387.21 177.358 1383.52 169.193C1379.83 161.028 1370.22 157.397 1362.05 161.081C1353.87 164.766 1350.24 174.379 1353.93 182.544C1357.62 190.709 1367.23 194.336 1375.4 190.656Z" fill="#FF622D" fill-opacity="0.2"/>
<path fill-rule="evenodd" clip-rule="evenodd" d="M1386.62 962.765C1378.45 966.455 1368.83 962.819 1365.14 954.653C1361.46 946.488 1365.09 936.872 1373.26 933.191C1381.43 929.502 1391.04 933.138 1394.73 941.303C1398.42 949.468 1394.79 959.072 1386.62 962.765Z" fill="#AF602B" fill-opacity="0.2"/>
<path fill-rule="evenodd" clip-rule="evenodd" d="M1404.36 1002.06C1396.19 1005.75 1386.57 1002.11 1382.88 993.945C1379.19 985.779 1382.83 976.163 1391 972.482C1399.17 968.793 1408.78 972.429 1412.47 980.594C1416.16 988.759 1412.52 998.376 1404.36 1002.06Z" fill="#AF602B" fill-opacity="0.2"/>
<path fill-rule="evenodd" clip-rule="evenodd" d="M1389.94 717.638C1381.77 721.328 1372.16 717.692 1368.47 709.526C1364.78 701.361 1368.41 691.744 1376.58 688.064C1384.75 684.384 1394.36 688.011 1398.05 696.176C1401.74 704.341 1398.1 713.949 1389.94 717.638Z" fill="#FF622D" fill-opacity="0.2"/>
<path fill-rule="evenodd" clip-rule="evenodd" d="M1212.8 798.606C1204.64 802.295 1195.02 798.659 1191.33 790.494C1187.64 782.329 1191.28 772.712 1199.45 769.032C1207.61 765.342 1217.23 768.978 1220.92 777.143C1224.61 785.309 1220.97 794.925 1212.8 798.606Z" fill="#FF622D" fill-opacity="0.2"/>
<path fill-rule="evenodd" clip-rule="evenodd" d="M1871.31 699.781C1863.76 683.064 1843.93 675.514 1826.9 683.199C1809.88 690.883 1802.42 710.75 1809.97 727.462C1837.39 788.19 1810.09 859.588 1749.28 887.043C1741.11 890.733 1731.49 887.087 1727.8 878.913C1724.1 870.729 1727.74 861.113 1735.9 857.423C1780.55 837.273 1800.34 785.019 1780.38 740.826C1765.38 707.575 1780.34 668.564 1813.53 653.579C1846.72 638.603 1885.88 653.174 1900.89 686.43C1904.59 694.614 1900.96 704.231 1892.79 707.92C1884.63 711.61 1875 707.964 1871.31 699.781Z" fill="#FFC716" fill-opacity="0.2"/>
<path fill-rule="evenodd" clip-rule="evenodd" d="M1735.71 857.062C1690.8 877.332 1638.45 857.749 1618.61 813.788C1614.92 805.623 1605.3 802 1597.11 805.688C1588.93 809.386 1585.27 819.002 1588.96 827.167C1616.31 887.749 1688.07 914.165 1749.06 886.637C1757.25 882.939 1760.9 873.323 1757.21 865.158C1753.52 856.992 1743.89 853.373 1735.71 857.062Z" fill="#FF622D" fill-opacity="0.2"/>
<path fill-rule="evenodd" clip-rule="evenodd" d="M1727.62 878.521C1723.93 870.356 1727.57 860.739 1735.74 857.059C1743.91 853.378 1753.52 857.006 1757.21 865.171C1760.9 873.336 1757.26 882.953 1749.09 886.633C1740.92 890.314 1731.31 886.686 1727.62 878.521Z" fill="#AF602B" fill-opacity="0.2"/>
<path fill-rule="evenodd" clip-rule="evenodd" d="M1741.23 630.267C1744.92 638.432 1741.27 648.053 1733.09 651.741L1668.89 680.727C1660.7 684.424 1651.08 680.792 1647.4 672.623C1643.72 664.454 1647.35 654.837 1655.54 651.148L1719.74 622.163C1727.93 618.474 1737.54 622.101 1741.23 630.267Z" fill="#FC8139" fill-opacity="0.2"/>
<path fill-rule="evenodd" clip-rule="evenodd" d="M1714.99 350.136C1659.93 374.989 1595.14 350.514 1570.3 295.471C1566.6 287.297 1556.99 283.661 1548.81 287.354C1540.64 291.048 1537 300.665 1540.68 308.843C1572.91 380.248 1656.94 411.991 1728.36 379.747C1736.53 376.053 1740.17 366.437 1736.48 358.258C1732.8 350.08 1723.17 346.439 1714.99 350.136Z" fill="#FC8139" fill-opacity="0.2"/>
<path fill-rule="evenodd" clip-rule="evenodd" d="M1728.36 379.734C1736.53 376.044 1740.17 366.437 1736.48 358.272C1732.79 350.106 1723.19 346.475 1715.01 350.16C1706.84 353.849 1703.2 363.457 1706.89 371.622C1710.58 379.787 1720.19 383.414 1728.36 379.734Z" fill="#FF622D" fill-opacity="0.2"/>
<path fill-rule="evenodd" clip-rule="evenodd" d="M1245.35 162.896C1253.51 159.206 1263.13 162.843 1266.82 171.008L1288.18 218.332C1291.87 226.497 1288.23 236.114 1280.06 239.794C1271.89 243.484 1262.28 239.847 1258.59 231.682L1237.23 184.358C1233.54 176.193 1237.18 166.576 1245.35 162.896Z" fill="#AF602B" fill-opacity="0.2"/>
<path fill-rule="evenodd" clip-rule="evenodd" d="M1060.1 813.117C1056.41 804.952 1060.04 795.339 1068.19 791.667L1110.51 772.563C1118.66 768.878 1128.26 772.522 1131.95 780.688C1135.64 788.853 1132.01 798.465 1123.86 802.138L1081.55 821.242C1073.39 824.918 1063.79 821.282 1060.1 813.117Z" fill="#FC8139" fill-opacity="0.2"/>
<path fill-rule="evenodd" clip-rule="evenodd" d="M1103.98 878.764C1112.15 875.075 1121.76 878.711 1125.46 886.885L1178.46 1004.32C1182.16 1012.49 1178.52 1022.11 1170.35 1025.8C1162.19 1029.49 1152.57 1025.85 1148.88 1017.68L1095.87 900.245C1092.17 892.061 1095.81 882.445 1103.98 878.764Z" fill="#FFC716" fill-opacity="0.2"/>
<path fill-rule="evenodd" clip-rule="evenodd" d="M1682.36 -34.3814C1690.54 -38.066 1700.15 -34.4345 1703.84 -26.2694L1734.54 41.7628C1738.23 49.9279 1734.59 59.5447 1726.42 63.2252C1718.25 66.9056 1708.64 63.2783 1704.95 55.1132L1674.25 -12.919C1670.56 -21.075 1674.2 -30.6918 1682.36 -34.3814Z" fill="#FF622D" fill-opacity="0.2"/>
<path fill-rule="evenodd" clip-rule="evenodd" d="M1150.6 1021.49C1146.91 1013.33 1150.55 1003.71 1158.72 1000.03C1166.88 996.343 1176.5 999.979 1180.19 1008.14C1183.88 1016.31 1180.24 1025.93 1172.07 1029.61C1163.91 1033.29 1154.29 1029.66 1150.6 1021.49Z" fill="#FF622D" fill-opacity="0.2"/>
<path fill-rule="evenodd" clip-rule="evenodd" d="M1889.86 635.94C1878.57 610.931 1849.14 599.812 1824.13 611.103C1815.98 614.789 1806.37 611.157 1802.7 603.006C1799.01 594.85 1802.65 585.256 1810.81 581.57C1852.13 562.917 1900.76 581.281 1919.41 622.597C1923.09 630.753 1919.46 640.347 1911.3 644.033C1903.15 647.718 1893.55 644.096 1889.86 635.94Z" fill="#FF622D" fill-opacity="0.2"/>
<path fill-rule="evenodd" clip-rule="evenodd" d="M1823.24 581.171C1831.62 584.337 1835.84 593.708 1832.68 602.089C1829.51 610.47 1820.14 614.697 1811.76 611.531C1803.38 608.366 1799.15 598.995 1802.32 590.614C1805.49 582.228 1814.85 578.006 1823.24 581.171Z" fill="#AF602B" fill-opacity="0.2"/>
<path fill-rule="evenodd" clip-rule="evenodd" d="M1522.86 1069.61C1546.46 1121.88 1607.97 1145.12 1660.26 1121.52C1668.42 1117.83 1678.04 1121.47 1681.73 1129.63C1685.42 1137.8 1681.78 1147.41 1673.61 1151.09C1604.99 1182.07 1524.25 1151.56 1493.29 1082.96C1489.6 1074.79 1493.23 1065.18 1501.4 1061.5C1509.57 1057.82 1519.18 1061.44 1522.86 1069.61Z" fill="#FC8139" fill-opacity="0.2"/>
<path fill-rule="evenodd" clip-rule="evenodd" d="M1661.21 1151.49C1652.83 1148.33 1648.6 1138.96 1651.77 1130.58C1654.93 1122.19 1664.3 1117.97 1672.68 1121.13C1681.06 1124.3 1685.29 1133.67 1682.13 1142.05C1678.95 1150.44 1669.59 1154.66 1661.21 1151.49Z" fill="#AF602B" fill-opacity="0.2"/>
<path fill-rule="evenodd" clip-rule="evenodd" d="M1680.08 1193.32C1671.69 1190.15 1667.47 1180.79 1670.64 1172.41C1673.81 1164.03 1683.17 1159.8 1691.56 1162.97C1699.94 1166.13 1704.16 1175.5 1701 1183.88C1697.83 1192.26 1688.47 1196.48 1680.08 1193.32Z" fill="#AF602B" fill-opacity="0.2"/>
<path fill-rule="evenodd" clip-rule="evenodd" d="M1669.23 1317.34C1637.22 1246.44 1553.79 1214.92 1482.86 1246.93C1474.68 1250.63 1465.05 1246.99 1461.37 1238.81C1457.67 1230.62 1461.31 1221 1469.5 1217.3C1556.79 1177.9 1659.47 1216.7 1698.87 1303.97C1702.56 1312.14 1698.92 1321.77 1690.74 1325.47C1682.55 1329.16 1672.92 1325.52 1669.23 1317.34Z" fill="#FFC716" fill-opacity="0.2"/>
<path d="M1717 1286.64L1690.5 1227.94C1686.81 1219.77 1690.44 1210.14 1698.6 1206.45C1706.77 1202.77 1716.39 1206.41 1720.08 1214.58L1746.58 1273.28C1750.27 1281.45 1746.64 1291.07 1738.47 1294.76C1730.29 1298.45 1720.68 1294.81 1717 1286.64Z" fill="#E7E0D5" fill-opacity="0.2"/>
<path fill-rule="evenodd" clip-rule="evenodd" d="M1690.75 1325.45C1682.59 1329.14 1672.97 1325.5 1669.28 1317.34C1665.59 1309.17 1669.23 1299.56 1677.4 1295.88C1685.56 1292.19 1695.18 1295.82 1698.87 1303.99C1702.56 1312.15 1698.93 1321.77 1690.75 1325.45Z" fill="#FF622D" fill-opacity="0.2"/>
</g>
</svg>
