<svg width="152" height="124" viewBox="0 0 152 124" fill="none" xmlns="http://www.w3.org/2000/svg">
<g clip-path="url(#clip0)">
<path d="M26.17 64.3C18.8 62.12 13.16 55.66 12.68 47.68C12.66 47.34 12.65 46.99 12.65 46.64C12.64 45.29 12.77 43.96 13.02 42.67C5.37 39.05 0.0599998 31.42 -2.45054e-07 22.6C-0.0400002 16.5 2.38 10.77 6.83 6.48C11.12 2.34 16.8 0.04 22.83 0L139.44 0.25C146.29 0.23 151.85 5.78 151.85 12.62V110.74C151.85 117.57 146.31 123.11 139.48 123.11L38.48 122.55C31.65 122.55 26.11 117.01 26.11 110.18L26.17 64.3Z" fill="url(#paint0_linear)"/>
<path d="M127.94 13.05L28.62 13.3L23.53 13.38C17.15 13.42 12.02 18.38 12.06 24.45C12.1 30.52 17.31 35.41 23.68 35.37L34.72 35.2H60.35C61.88 35.2 63.13 36.44 63.13 37.98C63.13 39.51 61.89 40.76 60.35 40.76H34.72C34.72 40.76 25.15 40.49 25.15 49.36C25.18 54.04 29.19 57.8 34.1 57.77L50.89 57.81C52.35 57.81 53.53 58.99 53.53 60.45V60.72C53.53 62.18 52.35 63.36 50.89 63.36H40.2C39.59 63.36 39.1 63.85 39.1 64.46V99.15C39.1 105.22 44.02 110.13 50.08 110.13H127.87C133.94 110.13 138.85 105.21 138.85 99.15V27.69C138.86 21.62 139.57 13.03 127.94 13.05Z" fill="url(#paint1_linear)" stroke="#AF602B" stroke-width="2" stroke-miterlimit="10"/>
<path d="M110.41 89.59H78.87C73.26 89.59 68.68 85 68.68 79.4V47.85C68.68 42.24 73.27 37.66 78.87 37.66H110.41C116.02 37.66 120.6 42.25 120.6 47.85V79.39C120.6 85 116.01 89.59 110.41 89.59Z" fill="url(#paint2_linear)" stroke="#AF602B" stroke-width="2" stroke-miterlimit="10"/>
</g>
<defs>
<linearGradient id="paint0_linear" x1="63.0016" y1="93.5693" x2="98.4935" y2="16.5443" gradientUnits="userSpaceOnUse">
<stop offset="2.66389e-07" stop-color="#512C1F"/>
<stop offset="1" stop-color="#512C1F"/>
</linearGradient>
<linearGradient id="paint1_linear" x1="138.172" y1="101.832" x2="34.0343" y2="15.6033" gradientUnits="userSpaceOnUse">
<stop offset="0.00447144" stop-color="#703320"/>
<stop offset="1" stop-color="#AF602B"/>
</linearGradient>
<linearGradient id="paint2_linear" x1="54.2315" y1="30.2589" x2="115.925" y2="81.1984" gradientUnits="userSpaceOnUse">
<stop offset="0.00447144" stop-color="#703320"/>
<stop offset="1" stop-color="#AF602B"/>
</linearGradient>
<clipPath id="clip0">
<rect width="151.85" height="123.11" fill="white"/>
</clipPath>
</defs>
</svg>
