<?xml version="1.0" standalone="no"?>
<!DOCTYPE svg PUBLIC "-//W3C//DTD SVG 20010904//EN"
 "http://www.w3.org/TR/2001/REC-SVG-20010904/DTD/svg10.dtd">
<svg version="1.0" xmlns="http://www.w3.org/2000/svg"
 width="1216.000000pt" height="1216.000000pt" viewBox="0 0 1216.000000 1216.000000"
 preserveAspectRatio="xMidYMid meet">
<metadata>
Created by potrace 1.11, written by Peter Selinger 2001-2013
</metadata>
<g transform="translate(0.000000,1216.000000) scale(0.100000,-0.100000)"
fill="#000000" stroke="none">
<path d="M1679 11036 c-2 -2 -31 -6 -64 -10 -33 -3 -71 -8 -85 -11 -14 -3 -36
-7 -50 -10 -14 -2 -45 -8 -70 -14 -25 -7 -54 -14 -66 -16 -12 -3 -40 -11 -63
-19 -22 -9 -41 -13 -41 -9 0 3 -6 1 -13 -5 -7 -6 -35 -18 -62 -28 -62 -20
-198 -85 -206 -97 -3 -5 -9 -9 -12 -9 -19 0 -47 -12 -47 -19 0 -5 -7 -9 -15
-9 -8 0 -15 -3 -15 -8 0 -4 -12 -13 -27 -19 -35 -16 -163 -112 -241 -181 -32
-29 -68 -59 -78 -67 -10 -8 -16 -15 -13 -15 3 0 -20 -27 -50 -59 -124 -133
-235 -301 -304 -461 -8 -19 -25 -57 -38 -85 -12 -27 -22 -53 -21 -57 1 -4 -4
-25 -12 -45 -13 -38 -28 -90 -42 -148 -4 -16 -8 -34 -10 -40 -3 -13 -14 -83
-24 -155 -11 -78 -5 -372 9 -455 7 -38 14 -81 16 -95 2 -14 4 -25 5 -25 1 0 3
-7 5 -15 1 -8 8 -35 15 -60 7 -25 12 -47 13 -50 0 -3 11 -33 23 -67 12 -34 20
-64 16 -67 -3 -3 0 -6 6 -6 7 0 12 -5 12 -12 0 -20 111 -238 121 -238 5 0 8
-3 7 -7 -3 -7 34 -68 82 -138 78 -114 237 -272 405 -403 43 -34 186 -120 262
-158 31 -15 32 -18 27 -58 -4 -22 -6 -50 -6 -61 1 -10 -2 -24 -7 -30 -4 -5 -7
-82 -6 -170 2 -148 6 -199 20 -265 3 -14 8 -36 10 -50 11 -67 47 -184 59 -192
6 -4 8 -8 4 -8 -7 0 24 -77 65 -160 26 -53 122 -200 163 -250 67 -81 216 -220
304 -282 103 -73 275 -162 383 -198 37 -13 67 -28 68 -34 4 -56 -3 -3511 -7
-3518 -3 -4 0 -8 6 -8 6 0 8 -5 4 -12 -14 -23 -4 -232 16 -322 5 -23 12 -54
15 -71 4 -16 13 -43 20 -60 7 -16 20 -48 30 -70 16 -41 88 -164 115 -199 45
-59 175 -179 242 -224 42 -29 79 -52 82 -52 3 0 33 -13 66 -29 33 -16 60 -27
60 -24 0 3 7 0 15 -7 8 -7 15 -9 15 -6 0 4 10 2 21 -5 12 -6 31 -12 43 -14 11
-1 35 -5 51 -9 17 -4 48 -9 70 -12 44 -6 817 -12 1900 -16 445 -2 693 -7 697
-13 5 -7 8 -7 8 0 0 10 257 11 267 1 3 -3 16 -1 29 4 15 6 26 6 30 -1 4 -6 11
-5 21 3 9 7 18 12 19 10 11 -11 65 -19 70 -11 3 5 10 7 15 4 5 -4 462 -8 1016
-11 555 -3 1181 -6 1393 -7 212 -1 391 -6 398 -10 6 -5 12 -4 12 1 0 12 143 9
152 -3 5 -7 8 -7 8 0 0 12 179 13 198 2 6 -5 12 -4 12 1 0 8 63 7 87 -2 7 -3
13 -2 13 2 0 9 117 8 126 -1 4 -3 15 -2 25 4 11 5 19 6 19 1 0 -5 18 -6 40 -2
22 4 40 4 40 0 0 -4 15 -5 33 0 18 4 43 3 55 -1 12 -5 24 -4 27 1 3 5 16 6 28
2 27 -9 1554 -7 1617 2 67 9 83 13 102 20 9 4 22 9 30 10 7 2 24 8 38 13 14 6
28 9 33 6 4 -2 7 1 7 8 0 7 3 9 7 6 3 -4 17 0 30 8 13 9 23 13 23 9 0 -4 7 -1
16 7 8 7 33 22 53 33 21 12 58 34 82 50 54 35 229 212 229 232 0 8 4 14 10 14
5 0 19 19 31 43 12 23 26 45 31 48 5 3 9 9 9 13 -1 3 10 31 24 61 14 31 25 61
25 69 0 7 3 16 7 20 4 3 8 12 10 19 1 7 7 32 13 57 6 25 14 59 17 75 9 50 10
8073 1 8144 -5 36 -20 103 -34 149 -26 85 -110 262 -125 262 -5 0 -9 5 -9 11
0 17 -92 122 -167 190 -39 35 -148 109 -162 109 -6 0 -11 4 -11 8 0 10 -175
82 -215 88 -5 1 -12 3 -15 4 -22 8 -105 22 -160 26 -84 6 -9554 26 -9561 20z"/>
</g>
</svg>
